<?xml version="1.0" encoding="UTF-8" standalone="no"?>
<!DOCTYPE svg PUBLIC "-//W3C//DTD SVG 1.1//EN"
 "http://www.w3.org/Graphics/SVG/1.1/DTD/svg11.dtd">
<!-- Generated by graphviz version 12.2.1 (20241206.2353)
 -->
<!-- Title: satelliten Pages: 1 -->
<svg width="435pt" height="401pt"
 viewBox="0.00 0.00 434.85 400.98" xmlns="http://www.w3.org/2000/svg" xmlns:xlink="http://www.w3.org/1999/xlink">
<g id="graph0" class="graph" transform="scale(1 1) rotate(0) translate(4 396.98)">
<title>satelliten</title>
<polygon fill="white" stroke="none" points="-4,4 -4,-396.98 430.85,-396.98 430.85,4 -4,4"/>
<!-- Zentrum -->
<g id="node1" class="node">
<title>Zentrum</title>
<ellipse fill="none" stroke="black" cx="195.51" cy="-196.49" rx="72" ry="72"/>
<text text-anchor="middle" x="195.51" y="-190.86" font-family="Times,serif" font-weight="bold" font-size="15.00">Wirtschaftspolitik</text>
</g>
<!-- A -->
<g id="node2" class="node">
<title>A</title>
<ellipse fill="none" stroke="black" cx="383.18" cy="-196.49" rx="43.67" ry="18"/>
<text text-anchor="middle" x="383.18" y="-191.44" font-family="Times New Roman,serif" font-size="14.00">Akteur 1</text>
</g>
<!-- A&#45;&gt;Zentrum -->
<g id="edge1" class="edge">
<title>A&#45;&gt;Zentrum</title>
<path fill="none" stroke="black" d="M339.18,-196.49C321.26,-196.49 299.93,-196.49 279.26,-196.49"/>
<polygon fill="black" stroke="black" points="279.38,-192.99 269.38,-196.49 279.38,-199.99 279.38,-192.99"/>
</g>
<!-- B -->
<g id="node3" class="node">
<title>B</title>
<ellipse fill="none" stroke="black" cx="253.5" cy="-374.98" rx="43.67" ry="18"/>
<text text-anchor="middle" x="253.5" y="-369.93" font-family="Times New Roman,serif" font-size="14.00">Akteur 2</text>
</g>
<!-- B&#45;&gt;Zentrum -->
<g id="edge2" class="edge">
<title>B&#45;&gt;Zentrum</title>
<path fill="none" stroke="black" d="M247.62,-356.88C241.39,-337.7 231.11,-306.06 221.32,-275.93"/>
<polygon fill="black" stroke="black" points="224.77,-275.23 218.35,-266.8 218.11,-277.4 224.77,-275.23"/>
</g>
<!-- C -->
<g id="node4" class="node">
<title>C</title>
<ellipse fill="none" stroke="black" cx="43.67" cy="-306.8" rx="43.67" ry="18"/>
<text text-anchor="middle" x="43.67" y="-301.75" font-family="Times New Roman,serif" font-size="14.00">Akteur 3</text>
</g>
<!-- C&#45;&gt;Zentrum -->
<g id="edge3" class="edge">
<title>C&#45;&gt;Zentrum</title>
<path fill="none" stroke="black" d="M65.43,-291C81.86,-279.06 105.35,-261.99 127.87,-245.63"/>
<polygon fill="black" stroke="black" points="129.84,-248.53 135.87,-239.82 125.72,-242.86 129.84,-248.53"/>
</g>
<!-- D -->
<g id="node5" class="node">
<title>D</title>
<ellipse fill="none" stroke="black" cx="43.67" cy="-86.18" rx="43.67" ry="18"/>
<text text-anchor="middle" x="43.67" y="-81.13" font-family="Times New Roman,serif" font-size="14.00">Akteur 4</text>
</g>
<!-- D&#45;&gt;Zentrum -->
<g id="edge4" class="edge">
<title>D&#45;&gt;Zentrum</title>
<path fill="none" stroke="black" d="M65.43,-101.98C81.86,-113.92 105.35,-130.99 127.87,-147.35"/>
<polygon fill="black" stroke="black" points="125.72,-150.12 135.87,-153.16 129.84,-144.45 125.72,-150.12"/>
</g>
<!-- E -->
<g id="node6" class="node">
<title>E</title>
<ellipse fill="none" stroke="black" cx="253.5" cy="-18" rx="43.67" ry="18"/>
<text text-anchor="middle" x="253.5" y="-12.95" font-family="Times New Roman,serif" font-size="14.00">Akteur 5</text>
</g>
<!-- E&#45;&gt;Zentrum -->
<g id="edge5" class="edge">
<title>E&#45;&gt;Zentrum</title>
<path fill="none" stroke="black" d="M247.62,-36.1C241.39,-55.28 231.11,-86.92 221.32,-117.04"/>
<polygon fill="black" stroke="black" points="218.11,-115.58 218.35,-126.17 224.77,-117.75 218.11,-115.58"/>
</g>
</g>
</svg>
