<?xml version="1.0" encoding="UTF-8" standalone="no"?>
<!DOCTYPE svg PUBLIC "-//W3C//DTD SVG 1.1//EN"
 "http://www.w3.org/Graphics/SVG/1.1/DTD/svg11.dtd">
<!-- Generated by graphviz version 12.2.1 (20241206.2353)
 -->
<!-- Title: satelliten Pages: 1 -->
<svg width="1067pt" height="917pt"
 viewBox="0.00 0.00 1067.23 917.02" xmlns="http://www.w3.org/2000/svg" xmlns:xlink="http://www.w3.org/1999/xlink">
<g id="graph0" class="graph" transform="scale(1 1) rotate(0) translate(4 913.02)">
<title>satelliten</title>
<polygon fill="white" stroke="none" points="-4,4 -4,-913.02 1063.23,-913.02 1063.23,4 -4,4"/>
<!-- Zentrum -->
<g id="node1" class="node">
<title>Zentrum</title>
<ellipse fill="none" stroke="black" cx="549.01" cy="-455.48" rx="94.88" ry="94.88"/>
<text text-anchor="middle" x="549.01" y="-449.86" font-family="Times,serif" font-weight="bold" font-size="15.00">Wirtschaftspolitik</text>
</g>
<!-- A -->
<g id="node2" class="node">
<title>A</title>
<ellipse fill="none" stroke="black" cx="995.09" cy="-455.48" rx="64.15" ry="18"/>
<text text-anchor="middle" x="995.09" y="-450.43" font-family="Times New Roman,serif" font-size="14.00">Zentralbanken</text>
</g>
<!-- A&#45;&gt;Zentrum -->
<g id="edge1" class="edge">
<title>A&#45;&gt;Zentrum</title>
<path fill="none" stroke="black" d="M930.7,-455.48C858.77,-455.48 741.21,-455.48 655.53,-455.48"/>
<polygon fill="black" stroke="black" points="655.7,-451.98 645.7,-455.48 655.7,-458.98 655.7,-451.98"/>
</g>
<!-- B -->
<g id="node3" class="node">
<title>B</title>
<ellipse fill="none" stroke="black" cx="955.84" cy="-638.44" rx="52.38" ry="18"/>
<text text-anchor="middle" x="955.84" y="-633.39" font-family="Times New Roman,serif" font-size="14.00">Lobbyisten</text>
</g>
<!-- B&#45;&gt;Zentrum -->
<g id="edge2" class="edge">
<title>B&#45;&gt;Zentrum</title>
<path fill="none" stroke="black" d="M923.58,-623.93C864.37,-597.31 736.22,-539.68 646.38,-499.27"/>
<polygon fill="black" stroke="black" points="647.83,-496.09 637.28,-495.18 644.96,-502.47 647.83,-496.09"/>
</g>
<!-- C -->
<g id="node4" class="node">
<title>C</title>
<ellipse fill="none" stroke="black" cx="831.37" cy="-800.82" rx="82.06" ry="18"/>
<text text-anchor="middle" x="831.37" y="-795.77" font-family="Times New Roman,serif" font-size="14.00">Europäische Union</text>
</g>
<!-- C&#45;&gt;Zentrum -->
<g id="edge3" class="edge">
<title>C&#45;&gt;Zentrum</title>
<path fill="none" stroke="black" d="M816.58,-782.74C779.91,-737.88 682.9,-619.24 616.36,-537.85"/>
<polygon fill="black" stroke="black" points="619.2,-535.8 610.17,-530.28 613.79,-540.24 619.2,-535.8"/>
</g>
<!-- D -->
<g id="node5" class="node">
<title>D</title>
<ellipse fill="none" stroke="black" cx="646" cy="-890.89" rx="53.91" ry="18"/>
<text text-anchor="middle" x="646" y="-885.84" font-family="Times New Roman,serif" font-size="14.00">Ministerien</text>
</g>
<!-- D&#45;&gt;Zentrum -->
<g id="edge4" class="edge">
<title>D&#45;&gt;Zentrum</title>
<path fill="none" stroke="black" d="M641.89,-872.46C630.12,-819.62 595.6,-664.65 572.13,-559.27"/>
<polygon fill="black" stroke="black" points="575.6,-558.75 570.01,-549.75 568.77,-560.27 575.6,-558.75"/>
</g>
<!-- E -->
<g id="node6" class="node">
<title>E</title>
<ellipse fill="none" stroke="black" cx="412.1" cy="-880.03" rx="111.02" ry="28.99"/>
<text text-anchor="start" x="341.6" y="-883.23" font-family="Times New Roman,serif" font-size="14.00">Gewerkschaften</text>
<text text-anchor="middle" x="412.1" y="-866.73" font-family="Times New Roman,serif" font-size="14.00"> und Arbeitgeberverbände</text>
</g>
<!-- E&#45;&gt;Zentrum -->
<g id="edge5" class="edge">
<title>E&#45;&gt;Zentrum</title>
<path fill="none" stroke="black" d="M421.51,-850.85C440.74,-791.23 485.32,-652.98 516.31,-556.88"/>
<polygon fill="black" stroke="black" points="519.63,-558 519.37,-547.41 512.97,-555.85 519.63,-558"/>
</g>
<!-- F -->
<g id="node7" class="node">
<title>F</title>
<ellipse fill="none" stroke="black" cx="219.35" cy="-755.99" rx="48.79" ry="18"/>
<text text-anchor="middle" x="219.35" y="-750.94" font-family="Times New Roman,serif" font-size="14.00">Wählende</text>
</g>
<!-- F&#45;&gt;Zentrum -->
<g id="edge6" class="edge">
<title>F&#45;&gt;Zentrum</title>
<path fill="none" stroke="black" d="M238.02,-738.98C281.85,-699.02 393.42,-597.32 470.28,-527.26"/>
<polygon fill="black" stroke="black" points="472.38,-530.07 477.41,-520.75 467.67,-524.9 472.38,-530.07"/>
</g>
<!-- G -->
<g id="node8" class="node">
<title>G</title>
<ellipse fill="none" stroke="black" cx="127.05" cy="-600.16" rx="61.59" ry="18"/>
<text text-anchor="middle" x="127.05" y="-595.11" font-family="Times New Roman,serif" font-size="14.00">Unternehmen</text>
</g>
<!-- G&#45;&gt;Zentrum -->
<g id="edge7" class="edge">
<title>G&#45;&gt;Zentrum</title>
<path fill="none" stroke="black" d="M167.51,-586.29C231.63,-564.3 358.53,-520.8 448.33,-490.01"/>
<polygon fill="black" stroke="black" points="449.34,-493.36 457.66,-486.81 447.07,-486.74 449.34,-493.36"/>
</g>
<!-- H -->
<g id="node9" class="node">
<title>H</title>
<ellipse fill="none" stroke="black" cx="114.2" cy="-355.89" rx="114.2" ry="40.66"/>
<text text-anchor="start" x="41.45" y="-367.34" font-family="Times New Roman,serif" font-size="14.00">PolitkerInnen</text>
<text text-anchor="start" x="41.45" y="-350.84" font-family="Times New Roman,serif" font-size="14.00"> (ParlamentarierInnen,</text>
<text text-anchor="middle" x="114.2" y="-334.34" font-family="Times New Roman,serif" font-size="14.00"> ParteifunktionärInnen), ...</text>
</g>
<!-- H&#45;&gt;Zentrum -->
<g id="edge8" class="edge">
<title>H&#45;&gt;Zentrum</title>
<path fill="none" stroke="black" d="M210.7,-377.99C280.16,-393.9 373.78,-415.35 444.92,-431.64"/>
<polygon fill="black" stroke="black" points="444.13,-435.05 454.66,-433.87 445.7,-428.23 444.13,-435.05"/>
</g>
<!-- I -->
<g id="node10" class="node">
<title>I</title>
<ellipse fill="none" stroke="black" cx="235.72" cy="-137.95" rx="66.71" ry="18"/>
<text text-anchor="middle" x="235.72" y="-132.9" font-family="Times New Roman,serif" font-size="14.00">Andere Länder</text>
</g>
<!-- I&#45;&gt;Zentrum -->
<g id="edge9" class="edge">
<title>I&#45;&gt;Zentrum</title>
<path fill="none" stroke="black" d="M253.01,-155.47C294.35,-197.37 400.91,-305.38 474.22,-379.68"/>
<polygon fill="black" stroke="black" points="471.52,-381.92 481.03,-386.58 476.5,-377.01 471.52,-381.92"/>
</g>
<!-- J -->
<g id="node11" class="node">
<title>J</title>
<ellipse fill="none" stroke="black" cx="461.89" cy="-18" rx="120.96" ry="18"/>
<text text-anchor="middle" x="461.89" y="-12.95" font-family="Times New Roman,serif" font-size="14.00">Internationale Organisationen</text>
</g>
<!-- J&#45;&gt;Zentrum -->
<g id="edge10" class="edge">
<title>J&#45;&gt;Zentrum</title>
<path fill="none" stroke="black" d="M465.52,-36.24C476.04,-89.03 507.08,-244.94 528.21,-351.01"/>
<polygon fill="black" stroke="black" points="524.73,-351.47 530.11,-360.59 531.59,-350.1 524.73,-351.47"/>
</g>
<!-- K -->
<g id="node12" class="node">
<title>K</title>
<ellipse fill="none" stroke="black" cx="684.04" cy="-30.34" rx="31.9" ry="18"/>
<text text-anchor="middle" x="684.04" y="-25.29" font-family="Times New Roman,serif" font-size="14.00">Justiz</text>
</g>
<!-- K&#45;&gt;Zentrum -->
<g id="edge11" class="edge">
<title>K&#45;&gt;Zentrum</title>
<path fill="none" stroke="black" d="M678.32,-48.33C661.93,-99.93 613.88,-251.25 581.2,-354.15"/>
<polygon fill="black" stroke="black" points="577.94,-352.85 578.24,-363.44 584.61,-354.97 577.94,-352.85"/>
</g>
<!-- L -->
<g id="node13" class="node">
<title>L</title>
<ellipse fill="none" stroke="black" cx="827.79" cy="-107.25" rx="60.05" ry="18"/>
<text text-anchor="middle" x="827.79" y="-102.2" font-family="Times New Roman,serif" font-size="14.00">Wissenschaft</text>
</g>
<!-- L&#45;&gt;Zentrum -->
<g id="edge12" class="edge">
<title>L&#45;&gt;Zentrum</title>
<path fill="none" stroke="black" d="M813.58,-125C777.66,-169.86 681.41,-290.1 615.47,-372.47"/>
<polygon fill="black" stroke="black" points="612.85,-370.14 609.33,-380.14 618.31,-374.52 612.85,-370.14"/>
</g>
<!-- M -->
<g id="node14" class="node">
<title>M</title>
<ellipse fill="none" stroke="black" cx="950.2" cy="-260.47" rx="65.68" ry="18"/>
<text text-anchor="middle" x="950.2" y="-255.42" font-family="Times New Roman,serif" font-size="14.00">Medien/Presse</text>
</g>
<!-- M&#45;&gt;Zentrum -->
<g id="edge13" class="edge">
<title>M&#45;&gt;Zentrum</title>
<path fill="none" stroke="black" d="M917.37,-276.43C858.51,-305.04 732.94,-366.08 644.85,-408.9"/>
<polygon fill="black" stroke="black" points="643.39,-405.72 635.93,-413.24 646.45,-412.01 643.39,-405.72"/>
</g>
</g>
</svg>
