<?xml version="1.0" encoding="UTF-8" standalone="no"?>
<!DOCTYPE svg PUBLIC "-//W3C//DTD SVG 1.1//EN"
 "http://www.w3.org/Graphics/SVG/1.1/DTD/svg11.dtd">
<!-- Generated by graphviz version 12.2.1 (20241206.2353)
 -->
<!-- Pages: 1 -->
<svg width="760pt" height="404pt"
 viewBox="0.00 0.00 760.00 404.00" xmlns="http://www.w3.org/2000/svg" xmlns:xlink="http://www.w3.org/1999/xlink">
<g id="graph0" class="graph" transform="scale(1 1) rotate(0) translate(4 400)">
<polygon fill="white" stroke="none" points="-4,4 -4,-400 756,-400 756,4 -4,4"/>
<g id="clust1" class="cluster">
<title>cluster_ziel</title>
<path fill="#ffffff" stroke="blue" stroke-width="1.5" d="M20,-16C20,-16 228,-16 228,-16 234,-16 240,-22 240,-28 240,-28 240,-359 240,-359 240,-365 234,-371 228,-371 228,-371 20,-371 20,-371 14,-371 8,-365 8,-359 8,-359 8,-28 8,-28 8,-22 14,-16 20,-16"/>
<text text-anchor="middle" x="124" y="-353.7" font-family="Times,serif" font-weight="bold" font-size="14.00">Zielfunktion</text>
</g>
<g id="clust2" class="cluster">
<title>cluster_Restriktion</title>
<path fill="#efefef" stroke="blue" stroke-width="1.5" d="M272,-16C272,-16 480,-16 480,-16 486,-16 492,-22 492,-28 492,-28 492,-376 492,-376 492,-382 486,-388 480,-388 480,-388 272,-388 272,-388 266,-388 260,-382 260,-376 260,-376 260,-28 260,-28 260,-22 266,-16 272,-16"/>
<text text-anchor="middle" x="376" y="-370.7" font-family="Times,serif" font-weight="bold" font-size="14.00">Restriktionen</text>
</g>
<g id="clust3" class="cluster">
<title>cluster_Handlung</title>
<path fill="#dfdfdf" stroke="blue" stroke-width="1.5" d="M524,-8C524,-8 732,-8 732,-8 738,-8 744,-14 744,-20 744,-20 744,-257 744,-257 744,-263 738,-269 732,-269 732,-269 524,-269 524,-269 518,-269 512,-263 512,-257 512,-257 512,-20 512,-20 512,-14 518,-8 524,-8"/>
<text text-anchor="middle" x="628" y="-251.7" font-family="Times,serif" font-weight="bold" font-size="14.00">Handlung</text>
</g>
<!-- a1 -->
<g id="node1" class="node">
<title>a1</title>
<text text-anchor="start" x="24" y="-30.95" font-family="Times New Roman,serif" font-size="14.00">bekannt</text>
</g>
<!-- a2 -->
<g id="node2" class="node">
<title>a2</title>
<text text-anchor="start" x="24" y="-73.95" font-family="Times New Roman,serif" font-size="14.00">gegeben</text>
</g>
<!-- b2 -->
<g id="node8" class="node">
<title>b2</title>
<text text-anchor="start" x="276" y="-73.95" font-family="Times New Roman,serif" font-size="14.00">Zielkonflikte</text>
</g>
<!-- a2&#45;&gt;b2 -->
<g id="edge1" class="edge">
<title>a2&#45;&gt;b2</title>
<path fill="none" stroke="black" d="M231.75,-79C240.05,-79 248.46,-79 256.83,-79"/>
<polygon fill="black" stroke="black" points="256.7,-82.5 266.7,-79 256.7,-75.5 256.7,-82.5"/>
</g>
<!-- a3 -->
<g id="node3" class="node">
<title>a3</title>
<text text-anchor="start" x="24" y="-116.95" font-family="Times New Roman,serif" font-size="14.00">konstant</text>
</g>
<!-- cluster_ziel_placeholder_0 -->
<!-- cluster_ziel_placeholder_1 -->
<!-- cluster_ziel_placeholder_2 -->
<!-- b1 -->
<g id="node7" class="node">
<title>b1</title>
<text text-anchor="start" x="276" y="-30.95" font-family="Times New Roman,serif" font-size="14.00">Informationen</text>
</g>
<!-- c2 -->
<g id="node14" class="node">
<title>c2</title>
<text text-anchor="start" x="528" y="-82.2" font-family="Times New Roman,serif" font-size="14.00">abhängig von variablen</text>
<text text-anchor="start" x="528" y="-65.7" font-family="Times New Roman,serif" font-size="14.00">Restriktionen veränderlich</text>
</g>
<!-- b2&#45;&gt;c2 -->
<g id="edge2" class="edge">
<title>b2&#45;&gt;c2</title>
<path fill="none" stroke="black" d="M483.75,-79C492.05,-79 500.46,-79 508.83,-79"/>
<polygon fill="black" stroke="black" points="508.7,-82.5 518.7,-79 508.7,-75.5 508.7,-82.5"/>
</g>
<!-- b3 -->
<g id="node9" class="node">
<title>b3</title>
<text text-anchor="start" x="276" y="-133.2" font-family="Times New Roman,serif" font-size="14.00">Begleiterscheinungen von</text>
<text text-anchor="start" x="276" y="-116.7" font-family="Times New Roman,serif" font-size="14.00"> Zielen und Mitteln </text>
</g>
<!-- cluster_Restriktion_placeholder_0 -->
<!-- cluster_Restriktion_placeholder_1 -->
<!-- cluster_Restriktion_placeholder_2 -->
<!-- c1 -->
<g id="node13" class="node">
<title>c1</title>
<text text-anchor="start" x="528" y="-22.95" font-family="Times New Roman,serif" font-size="14.00">stabil</text>
</g>
<!-- cluster_Handlung_placeholder_0 -->
<!-- cluster_Handlung_placeholder_1 -->
</g>
</svg>
