<?xml version="1.0" encoding="UTF-8" standalone="no"?>
<!DOCTYPE svg PUBLIC "-//W3C//DTD SVG 1.1//EN"
 "http://www.w3.org/Graphics/SVG/1.1/DTD/svg11.dtd">
<!-- Generated by graphviz version 12.2.1 (20241206.2353)
 -->
<!-- Pages: 1 -->
<svg width="760pt" height="251pt"
 viewBox="0.00 0.00 760.00 251.00" xmlns="http://www.w3.org/2000/svg" xmlns:xlink="http://www.w3.org/1999/xlink">
<g id="graph0" class="graph" transform="scale(1 1) rotate(0) translate(4 247)">
<polygon fill="white" stroke="none" points="-4,4 -4,-247 756,-247 756,4 -4,4"/>
<g id="clust1" class="cluster">
<title>cluster_ziel</title>
<path fill="#ffffff" stroke="blue" stroke-width="1.5" d="M20,-8C20,-8 228,-8 228,-8 234,-8 240,-14 240,-20 240,-20 240,-223 240,-223 240,-229 234,-235 228,-235 228,-235 20,-235 20,-235 14,-235 8,-229 8,-223 8,-223 8,-20 8,-20 8,-14 14,-8 20,-8"/>
<text text-anchor="middle" x="124" y="-217.7" font-family="Times,serif" font-weight="bold" font-size="14.00">Zielfunktion</text>
</g>
<g id="clust2" class="cluster">
<title>cluster_Restriktion</title>
<path fill="#efefef" stroke="blue" stroke-width="1.5" d="M272,-8C272,-8 480,-8 480,-8 486,-8 492,-14 492,-20 492,-20 492,-223 492,-223 492,-229 486,-235 480,-235 480,-235 272,-235 272,-235 266,-235 260,-229 260,-223 260,-223 260,-20 260,-20 260,-14 266,-8 272,-8"/>
<text text-anchor="middle" x="376" y="-217.7" font-family="Times,serif" font-weight="bold" font-size="14.00">Restriktionen</text>
</g>
<g id="clust3" class="cluster">
<title>cluster_Handlung</title>
<path fill="#dfdfdf" stroke="blue" stroke-width="1.5" d="M524,-8C524,-8 732,-8 732,-8 738,-8 744,-14 744,-20 744,-20 744,-223 744,-223 744,-229 738,-235 732,-235 732,-235 524,-235 524,-235 518,-235 512,-229 512,-223 512,-223 512,-20 512,-20 512,-14 518,-8 524,-8"/>
<text text-anchor="middle" x="628" y="-217.7" font-family="Times,serif" font-weight="bold" font-size="14.00">Handlung</text>
</g>
<!-- a1 -->
<g id="node1" class="node">
<title>a1</title>
<text text-anchor="start" x="24" y="-35.95" font-family="Times New Roman,serif" font-size="14.00">bekannt</text>
</g>
<!-- a2 -->
<g id="node2" class="node">
<title>a2</title>
<text text-anchor="start" x="24" y="-103.95" font-family="Times New Roman,serif" font-size="14.00">gegeben</text>
</g>
<!-- b2 -->
<g id="node5" class="node">
<title>b2</title>
<text text-anchor="start" x="276" y="-103.95" font-family="Times New Roman,serif" font-size="14.00">Zielkonflikte</text>
</g>
<!-- a2&#45;&gt;b2 -->
<!-- a3 -->
<g id="node3" class="node">
<title>a3</title>
<text text-anchor="start" x="24" y="-171.95" font-family="Times New Roman,serif" font-size="14.00">konstant</text>
</g>
<!-- b1 -->
<g id="node4" class="node">
<title>b1</title>
<text text-anchor="start" x="276" y="-35.95" font-family="Times New Roman,serif" font-size="14.00">Informationen</text>
</g>
<!-- c2 -->
<g id="node8" class="node">
<title>c2</title>
<text text-anchor="start" x="528" y="-112.2" font-family="Times New Roman,serif" font-size="14.00">abhängig von variablen</text>
<text text-anchor="start" x="528" y="-95.7" font-family="Times New Roman,serif" font-size="14.00">Restriktionen veränderlich</text>
</g>
<!-- b2&#45;&gt;c2 -->
<!-- b3 -->
<g id="node6" class="node">
<title>b3</title>
<text text-anchor="start" x="276" y="-180.2" font-family="Times New Roman,serif" font-size="14.00">Begleiterscheinungen von</text>
<text text-anchor="start" x="276" y="-163.7" font-family="Times New Roman,serif" font-size="14.00"> Zielen und Mitteln </text>
</g>
<!-- c1 -->
<g id="node7" class="node">
<title>c1</title>
<text text-anchor="start" x="528" y="-35.95" font-family="Times New Roman,serif" font-size="14.00">stabil</text>
</g>
<!-- cluster_Handlung_placeholder_2 -->
</g>
</svg>
