<?xml version="1.0" encoding="UTF-8" standalone="no"?>
<!DOCTYPE svg PUBLIC "-//W3C//DTD SVG 1.1//EN"
 "http://www.w3.org/Graphics/SVG/1.1/DTD/svg11.dtd">
<!-- Generated by graphviz version 12.2.1 (20241206.2353)
 -->
<!-- Pages: 1 -->
<svg width="760pt" height="609pt"
 viewBox="0.00 0.00 760.00 609.00" xmlns="http://www.w3.org/2000/svg" xmlns:xlink="http://www.w3.org/1999/xlink">
<g id="graph0" class="graph" transform="scale(1 1) rotate(0) translate(4 605)">
<polygon fill="white" stroke="none" points="-4,4 -4,-605 756,-605 756,4 -4,4"/>
<g id="clust1" class="cluster">
<title>cluster_Stimulus</title>
<path fill="#ffffff" stroke="blue" stroke-width="1.5" d="M20,-17C20,-17 228,-17 228,-17 234,-17 240,-23 240,-29 240,-29 240,-248 240,-248 240,-254 234,-260 228,-260 228,-260 20,-260 20,-260 14,-260 8,-254 8,-248 8,-248 8,-29 8,-29 8,-23 14,-17 20,-17"/>
<text text-anchor="middle" x="124" y="-242.7" font-family="Times,serif" font-weight="bold" font-size="14.00">Stimulus</text>
</g>
<g id="clust2" class="cluster">
<title>cluster_Organismus</title>
<path fill="#efefef" stroke="blue" stroke-width="1.5" d="M272,-16C272,-16 480,-16 480,-16 486,-16 492,-22 492,-28 492,-28 492,-581 492,-581 492,-587 486,-593 480,-593 480,-593 272,-593 272,-593 266,-593 260,-587 260,-581 260,-581 260,-28 260,-28 260,-22 266,-16 272,-16"/>
<text text-anchor="middle" x="376" y="-575.7" font-family="Times,serif" font-weight="bold" font-size="14.00">Organismus</text>
</g>
<g id="clust3" class="cluster">
<title>cluster_Reaktion</title>
<path fill="#dfdfdf" stroke="blue" stroke-width="1.5" d="M524,-8C524,-8 732,-8 732,-8 738,-8 744,-14 744,-20 744,-20 744,-257 744,-257 744,-263 738,-269 732,-269 732,-269 524,-269 524,-269 518,-269 512,-263 512,-257 512,-257 512,-20 512,-20 512,-14 518,-8 524,-8"/>
<text text-anchor="middle" x="628" y="-251.7" font-family="Times,serif" font-weight="bold" font-size="14.00">Reaktion</text>
</g>
<!-- a1 -->
<g id="node1" class="node">
<title>a1</title>
<text text-anchor="start" x="24" y="-31.95" font-family="Times New Roman,serif" font-size="14.00">Reiz wirkt auf Organismus</text>
</g>
<!-- a2 -->
<g id="node2" class="node">
<title>a2</title>
</g>
<!-- b2 -->
<g id="node6" class="node">
<title>b2</title>
<text text-anchor="start" x="276" y="-73.95" font-family="Times New Roman,serif" font-size="14.00">Vorwissen</text>
</g>
<!-- a2&#45;&gt;b2 -->
<g id="edge1" class="edge">
<title>a2&#45;&gt;b2</title>
<path fill="none" stroke="black" d="M231.75,-79C240.05,-79 248.46,-79 256.83,-79"/>
<polygon fill="black" stroke="black" points="256.7,-82.5 266.7,-79 256.7,-75.5 256.7,-82.5"/>
</g>
<!-- cluster_Stimulus_placeholder_0 -->
<!-- cluster_Stimulus_placeholder_1 -->
<!-- b1 -->
<g id="node5" class="node">
<title>b1</title>
<text text-anchor="start" x="276" y="-30.95" font-family="Times New Roman,serif" font-size="14.00">Verarbeitung</text>
</g>
<!-- c2 -->
<g id="node16" class="node">
<title>c2</title>
<text text-anchor="start" x="528" y="-82.2" font-family="Times New Roman,serif" font-size="14.00">abhängig von Reiz</text>
<text text-anchor="start" x="528" y="-65.7" font-family="Times New Roman,serif" font-size="14.00">und Situation im Organismus</text>
</g>
<!-- b2&#45;&gt;c2 -->
<g id="edge2" class="edge">
<title>b2&#45;&gt;c2</title>
<path fill="none" stroke="black" d="M483.75,-79C492.05,-79 500.46,-79 508.83,-79"/>
<polygon fill="black" stroke="black" points="508.7,-82.5 518.7,-79 508.7,-75.5 508.7,-82.5"/>
</g>
<!-- b3 -->
<g id="node7" class="node">
<title>b3</title>
<text text-anchor="start" x="276" y="-116.95" font-family="Times New Roman,serif" font-size="14.00">Werte</text>
</g>
<!-- b4 -->
<g id="node8" class="node">
<title>b4</title>
<text text-anchor="start" x="276" y="-159.95" font-family="Times New Roman,serif" font-size="14.00">aktuelle Situation</text>
</g>
<!-- b5 -->
<g id="node9" class="node">
<title>b5</title>
<text text-anchor="start" x="276" y="-202.95" font-family="Times New Roman,serif" font-size="14.00">...</text>
</g>
<!-- cluster_Organismus_placeholder_0 -->
<!-- cluster_Organismus_placeholder_1 -->
<!-- cluster_Organismus_placeholder_2 -->
<!-- cluster_Organismus_placeholder_3 -->
<!-- cluster_Organismus_placeholder_4 -->
<!-- c1 -->
<g id="node15" class="node">
<title>c1</title>
<text text-anchor="start" x="528" y="-22.95" font-family="Times New Roman,serif" font-size="14.00">Reaktion auf den Reiz</text>
</g>
<!-- cluster_Reaktion_placeholder_0 -->
<!-- cluster_Reaktion_placeholder_1 -->
</g>
</svg>
