<?xml version="1.0" encoding="UTF-8" standalone="no"?>
<!DOCTYPE svg PUBLIC "-//W3C//DTD SVG 1.1//EN"
 "http://www.w3.org/Graphics/SVG/1.1/DTD/svg11.dtd">
<!-- Generated by graphviz version 12.2.1 (20241206.2353)
 -->
<!-- Pages: 1 -->
<svg width="1241pt" height="502pt"
 viewBox="0.00 0.00 1240.75 502.25" xmlns="http://www.w3.org/2000/svg" xmlns:xlink="http://www.w3.org/1999/xlink">
<g id="graph0" class="graph" transform="scale(1 1) rotate(0) translate(4 498.25)">
<polygon fill="white" stroke="none" points="-4,4 -4,-498.25 1236.75,-498.25 1236.75,4 -4,4"/>
<g id="clust1" class="cluster">
<title>cluster_core</title>
<polygon fill="#f4f6f7" stroke="#34495e" points="349.5,-307 349.5,-411 940.5,-411 940.5,-307 349.5,-307"/>
<text text-anchor="middle" x="645" y="-393.7" font-family="Arial Bold" font-size="14.00">Der Transformationsprozess</text>
<text text-anchor="middle" x="645" y="-377.95" font-family="Arial Bold" font-size="14.00">(Systemisch &amp; Ganzheitlich)</text>
</g>
<g id="clust2" class="cluster">
<title>cluster_pillars</title>
<polygon fill="#eaf2f8" stroke="#2980b9" points="558.5,-144 558.5,-299 763.75,-299 763.75,-144 558.5,-144"/>
<text text-anchor="middle" x="661.12" y="-281.7" font-family="Arial Bold" font-size="14.00">Die zwei zentralen Säulen</text>
</g>
<g id="clust3" class="cluster">
<title>cluster_frictions</title>
<polygon fill="#fdf2e9" stroke="#e67e22" points="23.25,-8 23.25,-192 247,-192 247,-8 23.25,-8"/>
<text text-anchor="middle" x="135.12" y="-174.7" font-family="Arial Bold" font-size="14.00">Herausforderungen &amp; Friktionen</text>
</g>
<g id="clust4" class="cluster">
<title>cluster_externals</title>
<polygon fill="#fef9e7" stroke="#f1c40f" points="0,-200 0,-438 270.25,-438 270.25,-200 0,-200"/>
<text text-anchor="middle" x="135.12" y="-420.7" font-family="Arial Bold" font-size="14.00">Externe Treiber &amp; Rahmenbedingungen</text>
</g>
<!-- START -->
<g id="node1" class="node">
<title>START</title>
<polygon fill="#95a5a6" stroke="#2c3e50" points="208.25,-494.25 61,-494.25 61,-445.75 208.25,-445.75 208.25,-494.25"/>
<text text-anchor="middle" x="134.62" y="-479.8" font-family="Arial" font-size="11.00" fill="white">Auslaufender</text>
<text text-anchor="middle" x="134.62" y="-466.3" font-family="Arial" font-size="11.00" fill="white">Entwicklungspfad</text>
<text text-anchor="middle" x="134.62" y="-452.8" font-family="Arial" font-size="11.00" fill="white">(Fossile Basis / Status quo)</text>
</g>
<!-- C1 -->
<g id="node2" class="node">
<title>C1</title>
<polygon fill="#34495e" stroke="#2c3e50" points="529.5,-363.25 357.5,-363.25 357.5,-314.75 529.5,-314.75 529.5,-363.25"/>
<text text-anchor="middle" x="443.5" y="-348.8" font-family="Arial" font-size="11.00" fill="white">Schöpferische Zerstörung</text>
<text text-anchor="middle" x="443.5" y="-335.3" font-family="Arial" font-size="11.00" fill="white">&amp; Disruption</text>
<text text-anchor="middle" x="443.5" y="-321.8" font-family="Arial" font-size="11.00" fill="white">(Zukünftige Lösungen ungewiss)</text>
</g>
<!-- START&#45;&gt;C1 -->
<g id="edge3" class="edge">
<title>START&#45;&gt;C1</title>
<path fill="none" stroke="#7f8c8d" d="M208.53,-459.44C228.91,-455.27 250.79,-449.59 270.25,-442 317.28,-423.65 366.24,-393.08 399.89,-370"/>
<polygon fill="#7f8c8d" stroke="#7f8c8d" points="401.5,-373.15 407.72,-364.57 397.51,-367.4 401.5,-373.15"/>
<text text-anchor="middle" x="309.88" y="-450.28" font-family="Arial" font-size="10.00"> Impuls durch</text>
<text text-anchor="middle" x="309.88" y="-438.28" font-family="Arial" font-size="10.00"> Disruption</text>
</g>
<!-- C2 -->
<g id="node3" class="node">
<title>C2</title>
<polygon fill="#ecf0f1" stroke="#2c3e50" points="749.75,-351 572.5,-351 572.5,-315 749.75,-315 749.75,-351"/>
<text text-anchor="middle" x="661.12" y="-336.05" font-family="Arial" font-size="11.00">Anpassung von</text>
<text text-anchor="middle" x="661.12" y="-322.55" font-family="Arial" font-size="11.00">Angebots&#45; &amp; Nachfragestrukturen</text>
</g>
<!-- C1&#45;&gt;C2 -->
<g id="edge1" class="edge">
<title>C1&#45;&gt;C2</title>
<path fill="none" stroke="#7f8c8d" d="M529.72,-336.63C540.01,-336.34 550.58,-336.05 561.05,-335.76"/>
<polygon fill="#7f8c8d" stroke="#7f8c8d" points="560.93,-339.26 570.83,-335.48 560.73,-332.26 560.93,-339.26"/>
</g>
<!-- C3 -->
<g id="node4" class="node">
<title>C3</title>
<polygon fill="#ecf0f1" stroke="#2c3e50" points="932.5,-363.25 792.75,-363.25 792.75,-314.75 932.5,-314.75 932.5,-363.25"/>
<text text-anchor="middle" x="862.62" y="-348.8" font-family="Arial" font-size="11.00">Physische Erneuerung</text>
<text text-anchor="middle" x="862.62" y="-335.3" font-family="Arial" font-size="11.00">des Kapitalstocks</text>
<text text-anchor="middle" x="862.62" y="-321.8" font-family="Arial" font-size="11.00">(Anlagen, Qualifikationen)</text>
</g>
<!-- C2&#45;&gt;C3 -->
<g id="edge2" class="edge">
<title>C2&#45;&gt;C3</title>
<path fill="none" stroke="#7f8c8d" d="M750.21,-335.65C760.45,-335.96 770.85,-336.27 780.98,-336.57"/>
<polygon fill="#7f8c8d" stroke="#7f8c8d" points="780.67,-340.07 790.77,-336.87 780.88,-333.07 780.67,-340.07"/>
</g>
<!-- P1 -->
<g id="node5" class="node">
<title>P1</title>
<polygon fill="#27ae60" stroke="#2c3e50" points="723.88,-200.25 598.38,-200.25 598.38,-151.75 723.88,-151.75 723.88,-200.25"/>
<text text-anchor="middle" x="661.12" y="-185.8" font-family="Arial" font-size="11.00" fill="white">Grüne Transformation</text>
<text text-anchor="middle" x="661.12" y="-172.3" font-family="Arial" font-size="11.00" fill="white">(Dekarbonisierung &amp;</text>
<text text-anchor="middle" x="661.12" y="-158.8" font-family="Arial" font-size="11.00" fill="white">erneuerbare Energien)</text>
</g>
<!-- C2&#45;&gt;P1 -->
<g id="edge4" class="edge">
<title>C2&#45;&gt;P1</title>
<path fill="none" stroke="#7f8c8d" stroke-dasharray="5,2" d="M572.13,-319.62C560.5,-313.75 550.41,-305.52 544,-294 527.8,-264.87 527.8,-248.13 544,-219 553.2,-202.46 569.76,-192.21 587.58,-185.87"/>
<polygon fill="#7f8c8d" stroke="#7f8c8d" points="588.22,-189.33 596.73,-183.02 586.14,-182.65 588.22,-189.33"/>
</g>
<!-- P2 -->
<g id="node6" class="node">
<title>P2</title>
<polygon fill="#2980b9" stroke="#2c3e50" points="755.75,-267.25 566.5,-267.25 566.5,-218.75 755.75,-218.75 755.75,-267.25"/>
<text text-anchor="middle" x="661.12" y="-252.8" font-family="Arial" font-size="11.00" fill="white">Digitale Transformation</text>
<text text-anchor="middle" x="661.12" y="-239.3" font-family="Arial" font-size="11.00" fill="white">(Daten als neuer Produktionsfaktor /</text>
<text text-anchor="middle" x="661.12" y="-225.8" font-family="Arial" font-size="11.00" fill="white">technologische Revolution)</text>
</g>
<!-- C2&#45;&gt;P2 -->
<g id="edge5" class="edge">
<title>C2&#45;&gt;P2</title>
<path fill="none" stroke="#7f8c8d" stroke-dasharray="5,2" d="M661.12,-314.61C661.12,-302.74 661.12,-290.86 661.12,-278.99"/>
<polygon fill="#7f8c8d" stroke="#7f8c8d" points="664.63,-279.12 661.13,-269.12 657.63,-279.12 664.63,-279.12"/>
</g>
<!-- END -->
<g id="node14" class="node">
<title>END</title>
<polygon fill="#8e44ad" stroke="#2c3e50" points="1232.75,-363.25 1027.75,-363.25 1027.75,-314.75 1232.75,-314.75 1232.75,-363.25"/>
<text text-anchor="middle" x="1130.25" y="-348.8" font-family="Arial" font-size="11.00" fill="white">Neuer Entwicklungspfad</text>
<text text-anchor="middle" x="1130.25" y="-335.3" font-family="Arial" font-size="11.00" fill="white">(Zivilisatorischer Prozess / Anthropozän</text>
<text text-anchor="middle" x="1130.25" y="-321.8" font-family="Arial" font-size="11.00" fill="white">&amp; Transhumanismus)</text>
</g>
<!-- C3&#45;&gt;END -->
<g id="edge15" class="edge">
<title>C3&#45;&gt;END</title>
<path fill="none" stroke="#7f8c8d" stroke-width="2" d="M932.72,-339C958.23,-339 987.86,-339 1016.25,-339"/>
<polygon fill="#7f8c8d" stroke="#7f8c8d" stroke-width="2" points="1014.45,-342.5 1024.45,-339 1014.45,-335.5 1014.45,-342.5"/>
<text text-anchor="middle" x="980.12" y="-353.5" font-family="Arial" font-size="10.00"> Erfolgreicher</text>
<text text-anchor="middle" x="980.12" y="-341.5" font-family="Arial" font-size="10.00"> Pfadwechsel</text>
</g>
<!-- P1&#45;&gt;C3 -->
<g id="edge6" class="edge">
<title>P1&#45;&gt;C3</title>
<path fill="none" stroke="#7f8c8d" d="M724.36,-190.28C738.1,-195.16 752.03,-201.6 763.75,-210 798.38,-234.85 826.33,-275.51 843.35,-304.54"/>
<polygon fill="#7f8c8d" stroke="#7f8c8d" points="840.17,-306.02 848.16,-312.97 846.24,-302.55 840.17,-306.02"/>
</g>
<!-- P2&#45;&gt;C3 -->
<g id="edge7" class="edge">
<title>P2&#45;&gt;C3</title>
<path fill="none" stroke="#7f8c8d" d="M713.5,-267.72C740.03,-280.49 772.58,-296.15 800.41,-309.54"/>
<polygon fill="#7f8c8d" stroke="#7f8c8d" points="798.53,-312.52 809.06,-313.71 801.57,-306.22 798.53,-312.52"/>
</g>
<!-- F1 -->
<g id="node7" class="node">
<title>F1</title>
<polygon fill="#fadbd8" stroke="#2c3e50" points="182.75,-160 86.5,-160 86.5,-124 182.75,-124 182.75,-160"/>
<text text-anchor="middle" x="134.62" y="-145.05" font-family="Arial" font-size="11.00">Paradigmatische</text>
<text text-anchor="middle" x="134.62" y="-131.55" font-family="Arial" font-size="11.00">Ungewissheit</text>
</g>
<!-- F1&#45;&gt;C1 -->
<g id="edge12" class="edge">
<title>F1&#45;&gt;C1</title>
<path fill="none" stroke="#c0392b" stroke-dasharray="1,5" d="M183.11,-156.96C209.69,-166.32 242.88,-179.7 270.25,-196 324.41,-228.26 379.08,-277.04 411.88,-308.46"/>
<ellipse fill="#c0392b" stroke="#c0392b" cx="414.9" cy="-311.38" rx="4" ry="4"/>
</g>
<!-- F2 -->
<g id="node8" class="node">
<title>F2</title>
<polygon fill="#fadbd8" stroke="#2c3e50" points="203.38,-106 65.88,-106 65.88,-70 203.38,-70 203.38,-106"/>
<text text-anchor="middle" x="134.62" y="-91.05" font-family="Arial" font-size="11.00">Koordinationsprobleme &amp;</text>
<text text-anchor="middle" x="134.62" y="-77.55" font-family="Arial" font-size="11.00">hohe Wechselkosten</text>
</g>
<!-- F2&#45;&gt;C2 -->
<g id="edge13" class="edge">
<title>F2&#45;&gt;C2</title>
<path fill="none" stroke="#c0392b" stroke-dasharray="1,5" d="M203.45,-85.17C244.44,-85.88 296.82,-91.2 339.5,-110 458.23,-162.3 444.94,-240.27 558.5,-303 563.98,-306.03 569.8,-308.78 575.77,-311.28"/>
<ellipse fill="#c0392b" stroke="#c0392b" cx="579.8" cy="-312.87" rx="4" ry="4"/>
</g>
<!-- F3 -->
<g id="node9" class="node">
<title>F3</title>
<polygon fill="#fadbd8" stroke="#2c3e50" points="202.25,-52 67,-52 67,-16 202.25,-16 202.25,-52"/>
<text text-anchor="middle" x="134.62" y="-37.05" font-family="Arial" font-size="11.00">Strukturelle Rigiditäten &amp;</text>
<text text-anchor="middle" x="134.62" y="-23.55" font-family="Arial" font-size="11.00">Status&#45;quo&#45;Bias</text>
</g>
<!-- F3&#45;&gt;C3 -->
<g id="edge14" class="edge">
<title>F3&#45;&gt;C3</title>
<path fill="none" stroke="#c0392b" stroke-dasharray="1,5" d="M202.61,-22.38C326.74,-4.77 595.2,14.45 763.75,-112 826.58,-159.13 849.6,-254.89 857.62,-305.66"/>
<ellipse fill="#c0392b" stroke="#c0392b" cx="858.24" cy="-309.85" rx="4" ry="4"/>
</g>
<!-- E1 -->
<g id="node10" class="node">
<title>E1</title>
<polygon fill="#fcf3cf" stroke="#2c3e50" points="218,-352 51.25,-352 51.25,-316 218,-316 218,-352"/>
<text text-anchor="middle" x="134.62" y="-337.05" font-family="Arial" font-size="11.00">Geopolitische Neuordnung</text>
<text text-anchor="middle" x="134.62" y="-323.55" font-family="Arial" font-size="11.00">(Fragmentierung, Souveränität)</text>
</g>
<!-- E1&#45;&gt;C1 -->
<g id="edge8" class="edge">
<title>E1&#45;&gt;C1</title>
<path fill="none" stroke="#f39c12" d="M218.27,-335.35C257.53,-335.99 304.73,-336.76 345.67,-337.42"/>
<polygon fill="#f39c12" stroke="#f39c12" points="345.47,-340.92 355.52,-337.58 345.58,-333.92 345.47,-340.92"/>
</g>
<!-- E2 -->
<g id="node11" class="node">
<title>E2</title>
<polygon fill="#fcf3cf" stroke="#2c3e50" points="215.75,-298 53.5,-298 53.5,-262 215.75,-262 215.75,-298"/>
<text text-anchor="middle" x="134.62" y="-283.05" font-family="Arial" font-size="11.00">Gesellschaftliche Polarisierung</text>
<text text-anchor="middle" x="134.62" y="-269.55" font-family="Arial" font-size="11.00">(Mangelnder Konsens)</text>
</g>
<!-- E2&#45;&gt;C2 -->
<g id="edge9" class="edge">
<title>E2&#45;&gt;C2</title>
<path fill="none" stroke="#f39c12" d="M215.91,-282.06C295.74,-284.87 421.53,-291.35 529.5,-306 542.23,-307.73 555.57,-309.97 568.67,-312.43"/>
<polygon fill="#f39c12" stroke="#f39c12" points="567.63,-315.8 578.11,-314.26 568.95,-308.92 567.63,-315.8"/>
</g>
<!-- E3 -->
<g id="node12" class="node">
<title>E3</title>
<polygon fill="#fcf3cf" stroke="#2c3e50" points="236.75,-406 32.5,-406 32.5,-370 236.75,-370 236.75,-406"/>
<text text-anchor="middle" x="134.62" y="-391.05" font-family="Arial" font-size="11.00">Zeitliche Dimension</text>
<text text-anchor="middle" x="134.62" y="-377.55" font-family="Arial" font-size="11.00">(Notwendigkeit hoher Anfangsdynamik)</text>
</g>
<!-- E3&#45;&gt;C1 -->
<g id="edge10" class="edge">
<title>E3&#45;&gt;C1</title>
<path fill="none" stroke="#f39c12" d="M236.96,-371.82C272.09,-366.21 311.35,-359.94 346.08,-354.4"/>
<polygon fill="#f39c12" stroke="#f39c12" points="346.36,-357.9 355.68,-352.86 345.26,-350.98 346.36,-357.9"/>
</g>
<!-- E4 -->
<g id="node13" class="node">
<title>E4</title>
<polygon fill="#fcf3cf" stroke="#2c3e50" points="240.88,-244 28.38,-244 28.38,-208 240.88,-208 240.88,-244"/>
<text text-anchor="middle" x="134.62" y="-229.05" font-family="Arial" font-size="11.00">Kultureller Prozess</text>
<text text-anchor="middle" x="134.62" y="-215.55" font-family="Arial" font-size="11.00">(Fortschrittsnarrativ &amp; Mentalitätswandel)</text>
</g>
<!-- E4&#45;&gt;C3 -->
<g id="edge11" class="edge">
<title>E4&#45;&gt;C3</title>
<path fill="none" stroke="#f39c12" d="M221.68,-207.54C335.45,-183.27 525.47,-143.32 558.5,-140 649.26,-130.86 686.31,-91.79 763.75,-140 821.3,-175.83 845.99,-256.51 855.79,-303.4"/>
<polygon fill="#f39c12" stroke="#f39c12" points="852.33,-303.92 857.68,-313.06 859.19,-302.57 852.33,-303.92"/>
</g>
</g>
</svg>
