<?xml version="1.0" encoding="UTF-8" standalone="no"?>
<!DOCTYPE svg PUBLIC "-//W3C//DTD SVG 1.1//EN"
 "http://www.w3.org/Graphics/SVG/1.1/DTD/svg11.dtd">
<!-- Generated by graphviz version 12.2.1 (20241206.2353)
 -->
<!-- Pages: 1 -->
<svg width="393pt" height="205pt"
 viewBox="0.00 0.00 393.00 205.35" xmlns="http://www.w3.org/2000/svg" xmlns:xlink="http://www.w3.org/1999/xlink">
<g id="graph0" class="graph" transform="scale(1 1) rotate(0) translate(4 201.35)">
<polygon fill="white" stroke="none" points="-4,4 -4,-201.35 389,-201.35 389,4 -4,4"/>
<!-- a -->
<g id="node1" class="node">
<title>a</title>
<path fill="#0000ff" fill-opacity="0.200000" stroke="#0000ff" stroke-width="1.5" d="M101.5,-134.81C101.5,-134.81 12,-134.81 12,-134.81 6,-134.81 0,-128.81 0,-122.81 0,-122.81 0,-110.81 0,-110.81 0,-104.81 6,-98.81 12,-98.81 12,-98.81 101.5,-98.81 101.5,-98.81 107.5,-98.81 113.5,-104.81 113.5,-110.81 113.5,-110.81 113.5,-122.81 113.5,-122.81 113.5,-128.81 107.5,-134.81 101.5,-134.81"/>
<text text-anchor="middle" x="56.75" y="-111.76" font-family="Times New Roman,serif" font-size="14.00">Wirtschaftspolitik</text>
</g>
<!-- c -->
<g id="node2" class="node">
<title>c</title>
<path fill="#ff0000" fill-opacity="0.200000" stroke="#ff0000" stroke-width="1.5" d="M373,-134.81C373,-134.81 253.5,-134.81 253.5,-134.81 247.5,-134.81 241.5,-128.81 241.5,-122.81 241.5,-122.81 241.5,-110.81 241.5,-110.81 241.5,-104.81 247.5,-98.81 253.5,-98.81 253.5,-98.81 373,-98.81 373,-98.81 379,-98.81 385,-104.81 385,-110.81 385,-110.81 385,-122.81 385,-122.81 385,-128.81 379,-134.81 373,-134.81"/>
<text text-anchor="middle" x="313.25" y="-111.76" font-family="Times New Roman,serif" font-size="14.00">Wirtschaftspsychologie</text>
</g>
<!-- a&#45;&gt;c -->
<g id="edge1" class="edge">
<title>a&#45;&gt;c</title>
<path fill="none" stroke="black" d="M75.5,-135.3C89.35,-148.3 109.82,-164.62 131.5,-171.81 170.31,-184.69 184.17,-183.01 223.5,-171.81 244.49,-165.84 265.36,-153.32 281.59,-141.74"/>
<polygon fill="black" stroke="black" points="283.4,-144.75 289.35,-135.98 279.23,-139.12 283.4,-144.75"/>
<text text-anchor="middle" x="177.5" y="-184.05" font-family="Times New Roman,serif" font-size="14.00">benötigt</text>
</g>
<!-- b -->
<g id="node3" class="node">
<title>b</title>
<text text-anchor="middle" x="177.5" y="-111.76" font-family="Times New Roman,serif" font-size="14.00" fill="grey">und</text>
</g>
<!-- a&#45;&gt;b -->
<!-- c&#45;&gt;a -->
<g id="edge4" class="edge">
<title>c&#45;&gt;a</title>
<path fill="none" stroke="black" d="M293.25,-98.52C263.45,-72.13 203.62,-28.42 150.5,-46.31 124.31,-55.14 99.65,-74.63 82.36,-90.88"/>
<polygon fill="black" stroke="black" points="80.29,-88 75.57,-97.49 85.17,-93.02 80.29,-88"/>
<text text-anchor="middle" x="177.5" y="-49.51" font-family="Times New Roman,serif" font-size="14.00">motiviert</text>
</g>
<!-- c&#45;&gt;a -->
<g id="edge5" class="edge">
<title>c&#45;&gt;a</title>
<path fill="none" stroke="black" stroke-dasharray="5,2" d="M301.11,-98.5C284.06,-72.46 248.78,-25.86 204.5,-7.31 182.36,1.96 172.27,2.78 150.5,-7.31 114.58,-23.96 87.52,-62.13 72.15,-88.69"/>
<polygon fill="black" stroke="black" points="69.19,-86.81 67.4,-97.25 75.31,-90.21 69.19,-86.81"/>
<text text-anchor="middle" x="177.5" y="-10.51" font-family="Times New Roman,serif" font-size="14.00" fill="grey">erklärt</text>
</g>
<!-- b&#45;&gt;c -->
</g>
</svg>
