<?xml version="1.0" encoding="UTF-8" standalone="no"?>
<!DOCTYPE svg PUBLIC "-//W3C//DTD SVG 1.1//EN"
 "http://www.w3.org/Graphics/SVG/1.1/DTD/svg11.dtd">
<!-- Generated by graphviz version 12.2.1 (20241206.2353)
 -->
<!-- Pages: 1 -->
<svg width="569pt" height="173pt"
 viewBox="0.00 0.00 569.15 173.00" xmlns="http://www.w3.org/2000/svg" xmlns:xlink="http://www.w3.org/1999/xlink">
<g id="graph0" class="graph" transform="scale(1 1) rotate(0) translate(4 169)">
<polygon fill="white" stroke="none" points="-4,4 -4,-169 565.15,-169 565.15,4 -4,4"/>
<g id="clust1" class="cluster">
<title>cluster_wirtschaftspolitik</title>
<path fill="#0000ff" fill-opacity="0.200000" stroke="#0000ff" stroke-width="1.5" d="M20,-8C20,-8 274.75,-8 274.75,-8 280.75,-8 286.75,-14 286.75,-20 286.75,-20 286.75,-145 286.75,-145 286.75,-151 280.75,-157 274.75,-157 274.75,-157 20,-157 20,-157 14,-157 8,-151 8,-145 8,-145 8,-20 8,-20 8,-14 14,-8 20,-8"/>
<text text-anchor="middle" x="147.38" y="-139.7" font-family="Times,serif" font-weight="bold" font-size="14.00">Wirtschaftspolitik</text>
</g>
<g id="clust2" class="cluster">
<title>cluster_wirtschaftspsychologie</title>
<path fill="#ff0000" fill-opacity="0.200000" stroke="#ff0000" stroke-width="1.5" d="M318.75,-8C318.75,-8 541.15,-8 541.15,-8 547.15,-8 553.15,-14 553.15,-20 553.15,-20 553.15,-145 553.15,-145 553.15,-151 547.15,-157 541.15,-157 541.15,-157 318.75,-157 318.75,-157 312.75,-157 306.75,-151 306.75,-145 306.75,-145 306.75,-20 306.75,-20 306.75,-14 312.75,-8 318.75,-8"/>
<text text-anchor="middle" x="429.95" y="-139.7" font-family="Times,serif" font-weight="bold" font-size="14.00">Wirtschaftspsychologie</text>
</g>
<!-- a -->
<g id="node1" class="node">
<title>a</title>
<text text-anchor="start" x="24" y="-89.7" font-family="Times New Roman,serif" font-size="14.00">Aktivitäten des Staates,</text>
<text text-anchor="start" x="24" y="-73.2" font-family="Times New Roman,serif" font-size="14.00">mit denen die Wirtschaftsordnung</text>
<text text-anchor="start" x="24" y="-56.7" font-family="Times New Roman,serif" font-size="14.00">sowie wirtschaftliche Abläufe und Strukturen</text>
<text text-anchor="start" x="24" y="-40.2" font-family="Times New Roman,serif" font-size="14.00">beeinflusst und gestaltet werden</text>
</g>
<!-- b -->
<g id="node2" class="node">
<title>b</title>
<text text-anchor="start" x="322.75" y="-81.45" font-family="Times New Roman,serif" font-size="14.00">Erleben und Verhalten</text>
<text text-anchor="start" x="322.75" y="-64.95" font-family="Times New Roman,serif" font-size="14.00">des Menschen</text>
<text text-anchor="start" x="322.75" y="-48.45" font-family="Times New Roman,serif" font-size="14.00">beim wirtschaftlichen Handeln</text>
</g>
<!-- a&#45;&gt;b -->
</g>
</svg>
