<?xml version="1.0" encoding="UTF-8" standalone="no"?>
<!DOCTYPE svg PUBLIC "-//W3C//DTD SVG 1.1//EN"
 "http://www.w3.org/Graphics/SVG/1.1/DTD/svg11.dtd">
<!-- Generated by graphviz version 12.2.1 (20241206.2353)
 -->
<!-- Title: Wettbewerbsordnung Pages: 1 -->
<svg width="734pt" height="304pt"
 viewBox="0.00 0.00 734.00 303.50" xmlns="http://www.w3.org/2000/svg" xmlns:xlink="http://www.w3.org/1999/xlink">
<g id="graph0" class="graph" transform="scale(1 1) rotate(0) translate(4 299.5)">
<title>Wettbewerbsordnung</title>
<polygon fill="white" stroke="none" points="-4,4 -4,-299.5 730,-299.5 730,4 -4,4"/>
<g id="clust1" class="cluster">
<title>cluster_recht</title>
<polygon fill="#ebf8ff" stroke="#2b6cb0" points="8,-115.25 8,-287.5 718,-287.5 718,-115.25 8,-115.25"/>
<text text-anchor="middle" x="363" y="-270.2" font-family="Helvetica,sans-Serif" font-weight="bold" font-size="14.00">Rechtliche Prinzipien</text>
</g>
<g id="clust2" class="cluster">
<title>cluster_oekonomisch</title>
<polygon fill="#ebf4fa" stroke="#3182ce" points="60,-8 60,-96.25 680,-96.25 680,-8 60,-8"/>
<text text-anchor="middle" x="370" y="-78.95" font-family="Helvetica,sans-Serif" font-weight="bold" font-size="14.00">Politisch&#45;Ökonomische Prinzipien</text>
</g>
<!-- Eigentum -->
<g id="node1" class="node">
<title>Eigentum</title>
<path fill="#f8f9fa" stroke="#495057" stroke-width="1.5" d="M212,-249.5C212,-249.5 28,-249.5 28,-249.5 22,-249.5 16,-243.5 16,-237.5 16,-237.5 16,-225.5 16,-225.5 16,-219.5 22,-213.5 28,-213.5 28,-213.5 212,-213.5 212,-213.5 218,-213.5 224,-219.5 224,-225.5 224,-225.5 224,-237.5 224,-237.5 224,-243.5 218,-249.5 212,-249.5"/>
<text text-anchor="middle" x="120" y="-234.55" font-family="Helvetica,Arial,sans-serif" font-size="11.00">Schutz des Privateigentums</text>
<text text-anchor="middle" x="120" y="-221.05" font-family="Helvetica,Arial,sans-serif" font-size="11.00">(Basis für individuelle Handlungsfreiheit)</text>
</g>
<!-- Vertrag -->
<g id="node2" class="node">
<title>Vertrag</title>
<path fill="#f8f9fa" stroke="#495057" stroke-width="1.5" d="M462,-249.5C462,-249.5 272,-249.5 272,-249.5 266,-249.5 260,-243.5 260,-237.5 260,-237.5 260,-225.5 260,-225.5 260,-219.5 266,-213.5 272,-213.5 272,-213.5 462,-213.5 462,-213.5 468,-213.5 474,-219.5 474,-225.5 474,-225.5 474,-237.5 474,-237.5 474,-243.5 468,-249.5 462,-249.5"/>
<text text-anchor="middle" x="367" y="-234.55" font-family="Helvetica,Arial,sans-serif" font-size="11.00">Vertragsfreiheit</text>
<text text-anchor="middle" x="367" y="-221.05" font-family="Helvetica,Arial,sans-serif" font-size="11.00">(Privatautonomie &amp; Selbstverantwortung)</text>
</g>
<!-- Kartellverbot -->
<g id="node3" class="node">
<title>Kartellverbot</title>
<path fill="#ebf8ff" stroke="#c53030" stroke-width="2" d="M449.25,-159.25C449.25,-159.25 284.75,-159.25 284.75,-159.25 278.75,-159.25 272.75,-153.25 272.75,-147.25 272.75,-147.25 272.75,-135.25 272.75,-135.25 272.75,-129.25 278.75,-123.25 284.75,-123.25 284.75,-123.25 449.25,-123.25 449.25,-123.25 455.25,-123.25 461.25,-129.25 461.25,-135.25 461.25,-135.25 461.25,-147.25 461.25,-147.25 461.25,-153.25 455.25,-159.25 449.25,-159.25"/>
<text text-anchor="middle" x="367" y="-144.3" font-family="Helvetica,Arial,sans-serif" font-size="11.00">Grenze: Kartellverbot</text>
<text text-anchor="middle" x="367" y="-130.8" font-family="Helvetica,Arial,sans-serif" font-size="11.00">(Schutz Dritter &amp; der Konsumenten)</text>
</g>
<!-- Vertrag&#45;&gt;Kartellverbot -->
<g id="edge1" class="edge">
<title>Vertrag&#45;&gt;Kartellverbot</title>
<path fill="none" stroke="#c53030" stroke-width="1.2" stroke-dasharray="5,2" d="M367,-213.06C367,-200.7 367,-183.85 367,-169.68"/>
<polygon fill="#c53030" stroke="#c53030" stroke-width="1.2" points="369.8,-169.77 367,-161.77 364.2,-169.77 369.8,-169.77"/>
<text text-anchor="middle" x="397.75" y="-179.75" font-family="Helvetica,Arial,sans-serif" font-size="10.00"> limitiert durch</text>
</g>
<!-- Marktzutritt -->
<g id="node6" class="node">
<title>Marktzutritt</title>
<path fill="#f8f9fa" stroke="#495057" stroke-width="1.5" d="M427.5,-64.5C427.5,-64.5 306.5,-64.5 306.5,-64.5 300.5,-64.5 294.5,-58.5 294.5,-52.5 294.5,-52.5 294.5,-28 294.5,-28 294.5,-22 300.5,-16 306.5,-16 306.5,-16 427.5,-16 427.5,-16 433.5,-16 439.5,-22 439.5,-28 439.5,-28 439.5,-52.5 439.5,-52.5 439.5,-58.5 433.5,-64.5 427.5,-64.5"/>
<text text-anchor="middle" x="367" y="-50.05" font-family="Helvetica,Arial,sans-serif" font-size="11.00">Freier Marktzutritt</text>
<text text-anchor="middle" x="367" y="-36.55" font-family="Helvetica,Arial,sans-serif" font-size="11.00">(Abbau von Zöllen, Quoten</text>
<text text-anchor="middle" x="367" y="-23.05" font-family="Helvetica,Arial,sans-serif" font-size="11.00">&amp; staatlichen Barrieren)</text>
</g>
<!-- Kartellverbot&#45;&gt;Marktzutritt -->
<!-- Haftung -->
<g id="node4" class="node">
<title>Haftung</title>
<path fill="#f8f9fa" stroke="#495057" stroke-width="1.5" d="M698.25,-255.75C698.25,-255.75 521.75,-255.75 521.75,-255.75 515.75,-255.75 509.75,-249.75 509.75,-243.75 509.75,-243.75 509.75,-219.25 509.75,-219.25 509.75,-213.25 515.75,-207.25 521.75,-207.25 521.75,-207.25 698.25,-207.25 698.25,-207.25 704.25,-207.25 710.25,-213.25 710.25,-219.25 710.25,-219.25 710.25,-243.75 710.25,-243.75 710.25,-249.75 704.25,-255.75 698.25,-255.75"/>
<text text-anchor="middle" x="610" y="-241.3" font-family="Helvetica,Arial,sans-serif" font-size="11.00">Haftung</text>
<text text-anchor="middle" x="610" y="-227.8" font-family="Helvetica,Arial,sans-serif" font-size="11.00">(Wer Nutzen zieht, trägt den Schaden;</text>
<text text-anchor="middle" x="610" y="-214.3" font-family="Helvetica,Arial,sans-serif" font-size="11.00">Schutz vor Risiko&#45;Abwälzung)</text>
</g>
<!-- Geldwert -->
<g id="node5" class="node">
<title>Geldwert</title>
<path fill="#f8f9fa" stroke="#495057" stroke-width="1.5" d="M246,-64.5C246,-64.5 80,-64.5 80,-64.5 74,-64.5 68,-58.5 68,-52.5 68,-52.5 68,-28 68,-28 68,-22 74,-16 80,-16 80,-16 246,-16 246,-16 252,-16 258,-22 258,-28 258,-28 258,-52.5 258,-52.5 258,-58.5 252,-64.5 246,-64.5"/>
<text text-anchor="middle" x="163" y="-50.05" font-family="Helvetica,Arial,sans-serif" font-size="11.00">Geldwertstabilität</text>
<text text-anchor="middle" x="163" y="-36.55" font-family="Helvetica,Arial,sans-serif" font-size="11.00">(Ersparnisschutz &amp; Funktion</text>
<text text-anchor="middle" x="163" y="-23.05" font-family="Helvetica,Arial,sans-serif" font-size="11.00">des Preises als Knappheitsindikator)</text>
</g>
<!-- Konstanz -->
<g id="node7" class="node">
<title>Konstanz</title>
<path fill="#f8f9fa" stroke="#495057" stroke-width="1.5" d="M660,-64.5C660,-64.5 488,-64.5 488,-64.5 482,-64.5 476,-58.5 476,-52.5 476,-52.5 476,-28 476,-28 476,-22 482,-16 488,-16 488,-16 660,-16 660,-16 666,-16 672,-22 672,-28 672,-28 672,-52.5 672,-52.5 672,-58.5 666,-64.5 660,-64.5"/>
<text text-anchor="middle" x="574" y="-50.05" font-family="Helvetica,Arial,sans-serif" font-size="11.00">Konstanz der Wirtschaftspolitik</text>
<text text-anchor="middle" x="574" y="-36.55" font-family="Helvetica,Arial,sans-serif" font-size="11.00">(Rechtssicherheit &amp; Vertrauensschutz</text>
<text text-anchor="middle" x="574" y="-23.05" font-family="Helvetica,Arial,sans-serif" font-size="11.00">für langfristige Investitionen)</text>
</g>
</g>
</svg>
