<?xml version="1.0" encoding="UTF-8" standalone="no"?>
<!DOCTYPE svg PUBLIC "-//W3C//DTD SVG 1.1//EN"
 "http://www.w3.org/Graphics/SVG/1.1/DTD/svg11.dtd">
<!-- Generated by graphviz version 12.2.1 (20241206.2353)
 -->
<!-- Pages: 1 -->
<svg width="760pt" height="387pt"
 viewBox="0.00 0.00 760.00 387.00" xmlns="http://www.w3.org/2000/svg" xmlns:xlink="http://www.w3.org/1999/xlink">
<g id="graph0" class="graph" transform="scale(1 1) rotate(0) translate(4 383)">
<polygon fill="white" stroke="none" points="-4,4 -4,-383 756,-383 756,4 -4,4"/>
<g id="clust1" class="cluster">
<title>cluster_Stimulus</title>
<path fill="#ffffff" stroke="blue" stroke-width="1.5" d="M20,-8C20,-8 228,-8 228,-8 234,-8 240,-14 240,-20 240,-20 240,-359 240,-359 240,-365 234,-371 228,-371 228,-371 20,-371 20,-371 14,-371 8,-365 8,-359 8,-359 8,-20 8,-20 8,-14 14,-8 20,-8"/>
<text text-anchor="middle" x="124" y="-353.7" font-family="Times,serif" font-weight="bold" font-size="14.00">Stimulus</text>
</g>
<g id="clust2" class="cluster">
<title>cluster_Organismus</title>
<path fill="#efefef" stroke="blue" stroke-width="1.5" d="M272,-8C272,-8 480,-8 480,-8 486,-8 492,-14 492,-20 492,-20 492,-359 492,-359 492,-365 486,-371 480,-371 480,-371 272,-371 272,-371 266,-371 260,-365 260,-359 260,-359 260,-20 260,-20 260,-14 266,-8 272,-8"/>
<text text-anchor="middle" x="376" y="-353.7" font-family="Times,serif" font-weight="bold" font-size="14.00">Organismus</text>
</g>
<g id="clust3" class="cluster">
<title>cluster_Reaktion</title>
<path fill="#dfdfdf" stroke="blue" stroke-width="1.5" d="M524,-8C524,-8 732,-8 732,-8 738,-8 744,-14 744,-20 744,-20 744,-359 744,-359 744,-365 738,-371 732,-371 732,-371 524,-371 524,-371 518,-371 512,-365 512,-359 512,-359 512,-20 512,-20 512,-14 518,-8 524,-8"/>
<text text-anchor="middle" x="628" y="-353.7" font-family="Times,serif" font-weight="bold" font-size="14.00">Reaktion</text>
</g>
<!-- a0 -->
<g id="node1" class="node">
<title>a0</title>
</g>
<!-- a01 -->
<g id="node2" class="node">
<title>a01</title>
</g>
<!-- a1 -->
<g id="node3" class="node">
<title>a1</title>
<text text-anchor="start" x="24" y="-171.95" font-family="Times New Roman,serif" font-size="14.00">Reiz wirkt auf Organismus</text>
</g>
<!-- b3 -->
<g id="node8" class="node">
<title>b3</title>
<text text-anchor="start" x="276" y="-171.95" font-family="Times New Roman,serif" font-size="14.00">Werte</text>
</g>
<!-- a1&#45;&gt;b3 -->
<g id="edge1" class="edge">
<title>a1&#45;&gt;b3</title>
<path fill="none" stroke="black" d="M231.75,-177C240.05,-177 248.46,-177 256.83,-177"/>
<polygon fill="black" stroke="black" points="256.7,-180.5 266.7,-177 256.7,-173.5 256.7,-180.5"/>
</g>
<!-- a2 -->
<g id="node4" class="node">
<title>a2</title>
</g>
<!-- cluster_Stimulus_placeholder_4 -->
<!-- b1 -->
<g id="node6" class="node">
<title>b1</title>
<text text-anchor="start" x="276" y="-35.95" font-family="Times New Roman,serif" font-size="14.00">Verarbeitung</text>
</g>
<!-- b2 -->
<g id="node7" class="node">
<title>b2</title>
<text text-anchor="start" x="276" y="-103.95" font-family="Times New Roman,serif" font-size="14.00">Vorwissen</text>
</g>
<!-- c2 -->
<g id="node13" class="node">
<title>c2</title>
<text text-anchor="start" x="528" y="-180.2" font-family="Times New Roman,serif" font-size="14.00">abhängig von Reiz</text>
<text text-anchor="start" x="528" y="-163.7" font-family="Times New Roman,serif" font-size="14.00">und Situation im Organismus</text>
</g>
<!-- b3&#45;&gt;c2 -->
<g id="edge2" class="edge">
<title>b3&#45;&gt;c2</title>
<path fill="none" stroke="black" d="M483.75,-177C492.05,-177 500.46,-177 508.83,-177"/>
<polygon fill="black" stroke="black" points="508.7,-180.5 518.7,-177 508.7,-173.5 508.7,-180.5"/>
</g>
<!-- b4 -->
<g id="node9" class="node">
<title>b4</title>
<text text-anchor="start" x="276" y="-239.95" font-family="Times New Roman,serif" font-size="14.00">aktuelle Situation</text>
</g>
<!-- b5 -->
<g id="node10" class="node">
<title>b5</title>
<text text-anchor="start" x="276" y="-307.95" font-family="Times New Roman,serif" font-size="14.00">...</text>
</g>
<!-- c0 -->
<g id="node11" class="node">
<title>c0</title>
</g>
<!-- c1 -->
<g id="node12" class="node">
<title>c1</title>
<text text-anchor="start" x="528" y="-103.95" font-family="Times New Roman,serif" font-size="14.00">Reaktion auf den Reiz</text>
</g>
<!-- cluster_Reaktion_placeholder_3 -->
<!-- cluster_Reaktion_placeholder_4 -->
</g>
</svg>
