<?xml version="1.0" encoding="UTF-8" standalone="no"?>
<!DOCTYPE svg PUBLIC "-//W3C//DTD SVG 1.1//EN"
 "http://www.w3.org/Graphics/SVG/1.1/DTD/svg11.dtd">
<!-- Generated by graphviz version 12.2.1 (20241206.2353)
 -->
<!-- Title: Wirtschaftspolitische_Ziele Pages: 1 -->
<svg width="1721pt" height="476pt"
 viewBox="0.00 0.00 1721.25 475.62" xmlns="http://www.w3.org/2000/svg" xmlns:xlink="http://www.w3.org/1999/xlink">
<g id="graph0" class="graph" transform="scale(1 1) rotate(0) translate(4 471.62)">
<title>Wirtschaftspolitische_Ziele</title>
<polygon fill="#f8fafc" stroke="none" points="-4,4 -4,-471.62 1717.25,-471.62 1717.25,4 -4,4"/>
<g id="clust1" class="cluster">
<title>cluster_oberziel</title>
<polygon fill="#f1f5f9" stroke="#334155" stroke-dasharray="5,2" points="779,-293.56 779,-459.62 1099,-459.62 1099,-293.56 779,-293.56"/>
<text text-anchor="middle" x="939" y="-445.17" font-family="Arial-Bold" font-size="11.00">1. Legitimation &amp; Fundamentales Oberziel</text>
</g>
<g id="clust2" class="cluster">
<title>cluster_systematik</title>
<polygon fill="#eff6ff" stroke="#2563eb" stroke-dasharray="5,2" points="8,-194.78 8,-285.56 1045,-285.56 1045,-194.78 8,-194.78"/>
<text text-anchor="middle" x="526.5" y="-271.11" font-family="Arial-Bold" font-size="11.00">2. Zielkategorien des Zielsystems</text>
</g>
<g id="clust3" class="cluster">
<title>cluster_prozess</title>
<polygon fill="#f0fdf4" stroke="#16a34a" stroke-dasharray="5,2" points="460,-8 460,-174.78 1163,-174.78 1163,-8 460,-8"/>
<text text-anchor="middle" x="811.5" y="-160.33" font-family="Arial-Bold" font-size="11.00">3. Ausdifferenzierung der Prozessziele</text>
</g>
<g id="clust5" class="cluster">
<title>cluster_modern</title>
<polygon fill="#fef3c7" stroke="#d97706" stroke-dasharray="5,2" points="1054,-194.78 1054,-285.56 1688,-285.56 1688,-194.78 1054,-194.78"/>
<text text-anchor="middle" x="1371" y="-271.11" font-family="Arial-Bold" font-size="11.00">4. Moderne Zielerweiterungen (z. B. Jahreswirtschaftsbericht)</text>
</g>
<g id="clust7" class="cluster">
<title>cluster_kriterien</title>
<polygon fill="#fef2f2" stroke="#dc2626" stroke-dasharray="5,2" points="1171,-84 1171,-186.78 1644,-186.78 1644,-84 1171,-84"/>
<text text-anchor="middle" x="1407.5" y="-172.33" font-family="Arial-Bold" font-size="11.00">5. Anforderungen an das Zielsystem &amp; Zielbeziehungen</text>
</g>
<!-- werte -->
<g id="node1" class="node">
<title>werte</title>
<path fill="#0f172a" stroke="black" d="M1034.03,-430.12C1034.03,-430.12 843.98,-430.12 843.98,-430.12 837.98,-430.12 831.98,-424.12 831.98,-418.12 831.98,-418.12 831.98,-397.84 831.98,-397.84 831.98,-391.84 837.98,-385.84 843.98,-385.84 843.98,-385.84 1034.03,-385.84 1034.03,-385.84 1040.03,-385.84 1046.03,-391.84 1046.03,-397.84 1046.03,-397.84 1046.03,-418.12 1046.03,-418.12 1046.03,-424.12 1040.03,-430.12 1034.03,-430.12"/>
<text text-anchor="middle" x="939" y="-411.03" font-family="Arial" font-size="11.00" fill="#ffffff">Übergeordnete Grundwerte</text>
<text text-anchor="middle" x="939" y="-397.53" font-family="Arial" font-size="11.00" fill="#ffffff">• Freiheit &#160;&#160;• Gerechtigkeit &#160;&#160;• Sicherheit</text>
</g>
<!-- oberziel -->
<g id="node2" class="node">
<title>oberziel</title>
<path fill="#1e293b" stroke="black" d="M1079.4,-345.84C1079.4,-345.84 798.6,-345.84 798.6,-345.84 792.6,-345.84 786.6,-339.84 786.6,-333.84 786.6,-333.84 786.6,-313.56 786.6,-313.56 786.6,-307.56 792.6,-301.56 798.6,-301.56 798.6,-301.56 1079.4,-301.56 1079.4,-301.56 1085.4,-301.56 1091.4,-307.56 1091.4,-313.56 1091.4,-313.56 1091.4,-333.84 1091.4,-333.84 1091.4,-339.84 1085.4,-345.84 1079.4,-345.84"/>
<text text-anchor="middle" x="939" y="-326.75" font-family="Arial" font-size="11.00" fill="#ffffff">Fundamentales Oberziel</text>
<text text-anchor="middle" x="939" y="-313.25" font-family="Arial" font-size="11.00" fill="#ffffff">Sicherung &amp; Erhöhung des gesellschaftlichen Wohlstands</text>
</g>
<!-- werte&#45;&gt;oberziel -->
<g id="edge1" class="edge">
<title>werte&#45;&gt;oberziel</title>
<path fill="none" stroke="#64748b" stroke-width="1.5" d="M939,-385.36C939,-377.05 939,-367.35 939,-358.18"/>
<polygon fill="#64748b" stroke="#64748b" stroke-width="1.5" points="942.5,-358.44 939,-348.44 935.5,-358.44 942.5,-358.44"/>
</g>
<!-- ordnung -->
<g id="node3" class="node">
<title>ordnung</title>
<path fill="#dbeafe" stroke="#2563eb" d="M184.15,-256.06C184.15,-256.06 27.85,-256.06 27.85,-256.06 21.85,-256.06 15.85,-250.06 15.85,-244.06 15.85,-244.06 15.85,-214.78 15.85,-214.78 15.85,-208.78 21.85,-202.78 27.85,-202.78 27.85,-202.78 184.15,-202.78 184.15,-202.78 190.15,-202.78 196.15,-208.78 196.15,-214.78 196.15,-214.78 196.15,-244.06 196.15,-244.06 196.15,-250.06 190.15,-256.06 184.15,-256.06"/>
<text text-anchor="middle" x="106" y="-237.92" font-family="Arial" font-size="10.00">Ordnungspolitische Ziele</text>
<text text-anchor="middle" x="106" y="-225.92" font-family="Arial" font-size="10.00">• Langfristige Rahmenbedingungen</text>
<text text-anchor="middle" x="106" y="-213.92" font-family="Arial" font-size="10.00">• Spielregeln für den Markt</text>
</g>
<!-- oberziel&#45;&gt;ordnung -->
<g id="edge2" class="edge">
<title>oberziel&#45;&gt;ordnung</title>
<path fill="none" stroke="#64748b" stroke-width="1.5" d="M786.15,-322.84C604.48,-321.62 312.77,-314.92 208,-285.56 189.71,-280.44 171.05,-271.6 154.78,-262.49"/>
<polygon fill="#64748b" stroke="#64748b" stroke-width="1.5" points="156.82,-259.63 146.42,-257.63 153.31,-265.68 156.82,-259.63"/>
</g>
<!-- allokation -->
<g id="node4" class="node">
<title>allokation</title>
<path fill="#dbeafe" stroke="#2563eb" d="M375.02,-256.06C375.02,-256.06 232.97,-256.06 232.97,-256.06 226.97,-256.06 220.97,-250.06 220.97,-244.06 220.97,-244.06 220.97,-214.78 220.97,-214.78 220.97,-208.78 226.97,-202.78 232.97,-202.78 232.97,-202.78 375.02,-202.78 375.02,-202.78 381.02,-202.78 387.02,-208.78 387.02,-214.78 387.02,-214.78 387.02,-244.06 387.02,-244.06 387.02,-250.06 381.02,-256.06 375.02,-256.06"/>
<text text-anchor="middle" x="304" y="-237.92" font-family="Arial" font-size="10.00">Allokationsziele</text>
<text text-anchor="middle" x="304" y="-225.92" font-family="Arial" font-size="10.00">• Korrektur von Marktversagen</text>
<text text-anchor="middle" x="304" y="-213.92" font-family="Arial" font-size="10.00">• Effiziente Ressourcennutzung</text>
</g>
<!-- oberziel&#45;&gt;allokation -->
<g id="edge3" class="edge">
<title>oberziel&#45;&gt;allokation</title>
<path fill="none" stroke="#64748b" stroke-width="1.5" d="M786.31,-319.8C652.77,-315.87 469.61,-306.72 400,-285.56 382.82,-280.34 365.39,-271.58 350.18,-262.57"/>
<polygon fill="#64748b" stroke="#64748b" stroke-width="1.5" points="352.33,-259.78 341.97,-257.52 348.66,-265.74 352.33,-259.78"/>
</g>
<!-- verteilung -->
<g id="node5" class="node">
<title>verteilung</title>
<path fill="#dbeafe" stroke="#2563eb" d="M595.65,-256.06C595.65,-256.06 424.35,-256.06 424.35,-256.06 418.35,-256.06 412.35,-250.06 412.35,-244.06 412.35,-244.06 412.35,-214.78 412.35,-214.78 412.35,-208.78 418.35,-202.78 424.35,-202.78 424.35,-202.78 595.65,-202.78 595.65,-202.78 601.65,-202.78 607.65,-208.78 607.65,-214.78 607.65,-214.78 607.65,-244.06 607.65,-244.06 607.65,-250.06 601.65,-256.06 595.65,-256.06"/>
<text text-anchor="middle" x="510" y="-237.92" font-family="Arial" font-size="10.00">Verteilungsziele</text>
<text text-anchor="middle" x="510" y="-225.92" font-family="Arial" font-size="10.00">• Einkommens&#45; &amp; Vermögenskorrektur</text>
<text text-anchor="middle" x="510" y="-213.92" font-family="Arial" font-size="10.00">• Ethische Gerechtigkeit</text>
</g>
<!-- oberziel&#45;&gt;verteilung -->
<g id="edge4" class="edge">
<title>oberziel&#45;&gt;verteilung</title>
<path fill="none" stroke="#64748b" stroke-width="1.5" d="M786.3,-315.79C732.88,-310.54 673.02,-301.4 620,-285.56 600.93,-279.86 581.17,-271.01 563.75,-262.05"/>
<polygon fill="#64748b" stroke="#64748b" stroke-width="1.5" points="565.72,-259.13 555.24,-257.55 562.44,-265.32 565.72,-259.13"/>
</g>
<!-- struktur -->
<g id="node6" class="node">
<title>struktur</title>
<path fill="#dbeafe" stroke="#2563eb" d="M803.27,-250.06C803.27,-250.06 644.73,-250.06 644.73,-250.06 638.73,-250.06 632.73,-244.06 632.73,-238.06 632.73,-238.06 632.73,-220.78 632.73,-220.78 632.73,-214.78 638.73,-208.78 644.73,-208.78 644.73,-208.78 803.27,-208.78 803.27,-208.78 809.27,-208.78 815.27,-214.78 815.27,-220.78 815.27,-220.78 815.27,-238.06 815.27,-238.06 815.27,-244.06 809.27,-250.06 803.27,-250.06"/>
<text text-anchor="middle" x="724" y="-231.92" font-family="Arial" font-size="10.00">Strukturziele</text>
<text text-anchor="middle" x="724" y="-219.92" font-family="Arial" font-size="10.00">• Branchen&#45; &amp; Regionalentwicklung</text>
</g>
<!-- oberziel&#45;&gt;struktur -->
<g id="edge5" class="edge">
<title>oberziel&#45;&gt;struktur</title>
<path fill="none" stroke="#64748b" stroke-width="1.5" d="M868.77,-301.15C855.09,-296.41 840.98,-291.13 828,-285.56 808.15,-277.05 786.97,-266.17 768.94,-256.33"/>
<polygon fill="#64748b" stroke="#64748b" stroke-width="1.5" points="770.87,-253.39 760.43,-251.62 767.48,-259.52 770.87,-253.39"/>
</g>
<!-- prozess -->
<g id="node7" class="node">
<title>prozess</title>
<path fill="#dbeafe" stroke="#2563eb" d="M1025.4,-250.06C1025.4,-250.06 852.6,-250.06 852.6,-250.06 846.6,-250.06 840.6,-244.06 840.6,-238.06 840.6,-238.06 840.6,-220.78 840.6,-220.78 840.6,-214.78 846.6,-208.78 852.6,-208.78 852.6,-208.78 1025.4,-208.78 1025.4,-208.78 1031.4,-208.78 1037.4,-214.78 1037.4,-220.78 1037.4,-220.78 1037.4,-238.06 1037.4,-238.06 1037.4,-244.06 1031.4,-250.06 1025.4,-250.06"/>
<text text-anchor="middle" x="939" y="-231.92" font-family="Arial" font-size="10.00">Prozessziele</text>
<text text-anchor="middle" x="939" y="-219.92" font-family="Arial" font-size="10.00">• Steuerung des Wirtschaftsprozesses</text>
</g>
<!-- oberziel&#45;&gt;prozess -->
<g id="edge6" class="edge">
<title>oberziel&#45;&gt;prozess</title>
<path fill="none" stroke="#64748b" stroke-width="1.5" d="M939,-301.3C939,-289.8 939,-275.39 939,-262.57"/>
<polygon fill="#64748b" stroke="#64748b" stroke-width="1.5" points="942.5,-262.71 939,-252.71 935.5,-262.71 942.5,-262.71"/>
</g>
<!-- oekologie -->
<g id="node14" class="node">
<title>oekologie</title>
<path fill="#fef3c7" stroke="#d97706" d="M1234.03,-256.06C1234.03,-256.06 1073.97,-256.06 1073.97,-256.06 1067.97,-256.06 1061.97,-250.06 1061.97,-244.06 1061.97,-244.06 1061.97,-214.78 1061.97,-214.78 1061.97,-208.78 1067.97,-202.78 1073.97,-202.78 1073.97,-202.78 1234.03,-202.78 1234.03,-202.78 1240.03,-202.78 1246.03,-208.78 1246.03,-214.78 1246.03,-214.78 1246.03,-244.06 1246.03,-244.06 1246.03,-250.06 1240.03,-256.06 1234.03,-256.06"/>
<text text-anchor="middle" x="1154" y="-237.92" font-family="Arial" font-size="10.00">Ökologische Nachhaltigkeit</text>
<text text-anchor="middle" x="1154" y="-225.92" font-family="Arial" font-size="10.00">• Klimaneutralität &amp; THG&#45;Minderung</text>
<text text-anchor="middle" x="1154" y="-213.92" font-family="Arial" font-size="10.00">• Dekarbonisierung</text>
</g>
<!-- oberziel&#45;&gt;oekologie -->
<g id="edge13" class="edge">
<title>oberziel&#45;&gt;oekologie</title>
<path fill="none" stroke="#64748b" stroke-width="1.5" stroke-dasharray="1,5" d="M1010.19,-301.13C1023.89,-296.41 1038.01,-291.14 1051,-285.56 1066.82,-278.76 1083.48,-270.41 1098.67,-262.28"/>
<polygon fill="#64748b" stroke="#64748b" stroke-width="1.5" points="1100.33,-265.36 1107.45,-257.51 1096.99,-259.21 1100.33,-265.36"/>
</g>
<!-- resilienz -->
<g id="node15" class="node">
<title>resilienz</title>
<path fill="#fef3c7" stroke="#d97706" d="M1457.15,-256.06C1457.15,-256.06 1282.85,-256.06 1282.85,-256.06 1276.85,-256.06 1270.85,-250.06 1270.85,-244.06 1270.85,-244.06 1270.85,-214.78 1270.85,-214.78 1270.85,-208.78 1276.85,-202.78 1282.85,-202.78 1282.85,-202.78 1457.15,-202.78 1457.15,-202.78 1463.15,-202.78 1469.15,-208.78 1469.15,-214.78 1469.15,-214.78 1469.15,-244.06 1469.15,-244.06 1469.15,-250.06 1463.15,-256.06 1457.15,-256.06"/>
<text text-anchor="middle" x="1370" y="-237.92" font-family="Arial" font-size="10.00">Wirtschafts&#45; &amp; Sozialresilienz</text>
<text text-anchor="middle" x="1370" y="-225.92" font-family="Arial" font-size="10.00">• Schutz vor geopolitischen Risiken</text>
<text text-anchor="middle" x="1370" y="-213.92" font-family="Arial" font-size="10.00">• Infrastrukturschutz &amp; Rohstoffzugang</text>
</g>
<!-- oberziel&#45;&gt;resilienz -->
<g id="edge14" class="edge">
<title>oberziel&#45;&gt;resilienz</title>
<path fill="none" stroke="#64748b" stroke-width="1.5" stroke-dasharray="1,5" d="M1091.74,-315.77C1145.43,-310.52 1205.65,-301.38 1259,-285.56 1278.22,-279.86 1298.15,-271.01 1315.73,-262.05"/>
<polygon fill="#64748b" stroke="#64748b" stroke-width="1.5" points="1317.1,-265.28 1324.33,-257.54 1313.85,-259.08 1317.1,-265.28"/>
</g>
<!-- wettbewerb -->
<g id="node16" class="node">
<title>wettbewerb</title>
<path fill="#fef3c7" stroke="#d97706" d="M1667.78,-250.06C1667.78,-250.06 1506.22,-250.06 1506.22,-250.06 1500.22,-250.06 1494.22,-244.06 1494.22,-238.06 1494.22,-238.06 1494.22,-220.78 1494.22,-220.78 1494.22,-214.78 1500.22,-208.78 1506.22,-208.78 1506.22,-208.78 1667.78,-208.78 1667.78,-208.78 1673.78,-208.78 1679.78,-214.78 1679.78,-220.78 1679.78,-220.78 1679.78,-238.06 1679.78,-238.06 1679.78,-244.06 1673.78,-250.06 1667.78,-250.06"/>
<text text-anchor="middle" x="1587" y="-231.92" font-family="Arial" font-size="10.00">Wettbewerbsfähigkeit</text>
<text text-anchor="middle" x="1587" y="-219.92" font-family="Arial" font-size="10.00">• Stärkung der Standortbedingungen</text>
</g>
<!-- oberziel&#45;&gt;wettbewerb -->
<g id="edge15" class="edge">
<title>oberziel&#45;&gt;wettbewerb</title>
<path fill="none" stroke="#64748b" stroke-width="1.5" stroke-dasharray="1,5" d="M1091.67,-319.28C1226.15,-314.98 1411.31,-305.58 1482,-285.56 1504.63,-279.15 1527.97,-267.49 1546.88,-256.53"/>
<polygon fill="#64748b" stroke="#64748b" stroke-width="1.5" points="1548.43,-259.68 1555.23,-251.54 1544.85,-253.67 1548.43,-259.68"/>
</g>
<!-- kriterien -->
<g id="node18" class="node">
<title>kriterien</title>
<path fill="#fee2e2" stroke="#dc2626" d="M1623.65,-157.28C1623.65,-157.28 1416.35,-157.28 1416.35,-157.28 1410.35,-157.28 1404.35,-151.28 1404.35,-145.28 1404.35,-145.28 1404.35,-104 1404.35,-104 1404.35,-98 1410.35,-92 1416.35,-92 1416.35,-92 1623.65,-92 1623.65,-92 1629.65,-92 1635.65,-98 1635.65,-104 1635.65,-104 1635.65,-145.28 1635.65,-145.28 1635.65,-151.28 1629.65,-157.28 1623.65,-157.28"/>
<text text-anchor="middle" x="1520" y="-139.14" font-family="Arial" font-size="10.00">Qualitätskriterien für ein rationales Zielsystem:</text>
<text text-anchor="middle" x="1520" y="-127.14" font-family="Arial" font-size="10.00">• Widerspruchsfreiheit &amp; Vollständigkeit</text>
<text text-anchor="middle" x="1520" y="-115.14" font-family="Arial" font-size="10.00">• Transparente Hierarchie</text>
<text text-anchor="middle" x="1520" y="-103.14" font-family="Arial" font-size="10.00">• Operationalisierbarkeit &amp; Zurechenbarkeit</text>
</g>
<!-- oberziel&#45;&gt;kriterien -->
<g id="edge17" class="edge">
<title>oberziel&#45;&gt;kriterien</title>
<path fill="none" stroke="#dc2626" stroke-width="1.5" stroke-dasharray="5,2" d="M1091.5,-320.52C1306.11,-316.69 1673.57,-307.02 1694,-285.56 1721.82,-256.34 1716.66,-228.16 1694,-194.78 1682.27,-177.5 1665.47,-164.54 1646.88,-154.82"/>
<polygon fill="#dc2626" stroke="#dc2626" stroke-width="1.5" points="1648.65,-151.78 1638.12,-150.59 1645.6,-158.09 1648.65,-151.78"/>
</g>
<!-- stabilitaet -->
<g id="node8" class="node">
<title>stabilitaet</title>
<path fill="#dcfce7" stroke="#16a34a" d="M845.77,-145.28C845.77,-145.28 684.23,-145.28 684.23,-145.28 678.23,-145.28 672.23,-139.28 672.23,-133.28 672.23,-133.28 672.23,-116 672.23,-116 672.23,-110 678.23,-104 684.23,-104 684.23,-104 845.77,-104 845.77,-104 851.77,-104 857.77,-110 857.77,-116 857.77,-116 857.77,-133.28 857.77,-133.28 857.77,-139.28 851.77,-145.28 845.77,-145.28"/>
<text text-anchor="middle" x="765" y="-127.14" font-family="Arial" font-size="10.00">Stabilitätspolitik (StabsG)</text>
<text text-anchor="middle" x="765" y="-115.14" font-family="Arial" font-size="10.00">Abfederung konjunktureller Schocks</text>
</g>
<!-- prozess&#45;&gt;stabilitaet -->
<g id="edge7" class="edge">
<title>prozess&#45;&gt;stabilitaet</title>
<path fill="none" stroke="#64748b" stroke-width="1.5" d="M905.04,-208.36C877.73,-192.23 839.15,-169.44 809.4,-151.87"/>
<polygon fill="#64748b" stroke="#64748b" stroke-width="1.5" points="811.22,-148.88 800.83,-146.81 807.66,-154.9 811.22,-148.88"/>
</g>
<!-- wachstum -->
<g id="node9" class="node">
<title>wachstum</title>
<path fill="#dcfce7" stroke="#16a34a" d="M1069.15,-145.28C1069.15,-145.28 894.85,-145.28 894.85,-145.28 888.85,-145.28 882.85,-139.28 882.85,-133.28 882.85,-133.28 882.85,-116 882.85,-116 882.85,-110 888.85,-104 894.85,-104 894.85,-104 1069.15,-104 1069.15,-104 1075.15,-104 1081.15,-110 1081.15,-116 1081.15,-116 1081.15,-133.28 1081.15,-133.28 1081.15,-139.28 1075.15,-145.28 1069.15,-145.28"/>
<text text-anchor="middle" x="982" y="-127.14" font-family="Arial" font-size="10.00">Wachstumspolitik</text>
<text text-anchor="middle" x="982" y="-115.14" font-family="Arial" font-size="10.00">Erweiterung des Produktionspotenzials</text>
</g>
<!-- prozess&#45;&gt;wachstum -->
<g id="edge8" class="edge">
<title>prozess&#45;&gt;wachstum</title>
<path fill="none" stroke="#64748b" stroke-width="1.5" d="M947.29,-208.6C953.44,-193.91 961.94,-173.6 968.99,-156.75"/>
<polygon fill="#64748b" stroke="#64748b" stroke-width="1.5" points="972.08,-158.42 972.71,-147.84 965.62,-155.72 972.08,-158.42"/>
</g>
<!-- beziehungen -->
<g id="node17" class="node">
<title>beziehungen</title>
<path fill="#fee2e2" stroke="#dc2626" d="M1366.9,-151.28C1366.9,-151.28 1191.1,-151.28 1191.1,-151.28 1185.1,-151.28 1179.1,-145.28 1179.1,-139.28 1179.1,-139.28 1179.1,-110 1179.1,-110 1179.1,-104 1185.1,-98 1191.1,-98 1191.1,-98 1366.9,-98 1366.9,-98 1372.9,-98 1378.9,-104 1378.9,-110 1378.9,-110 1378.9,-139.28 1378.9,-139.28 1378.9,-145.28 1372.9,-151.28 1366.9,-151.28"/>
<text text-anchor="middle" x="1279" y="-133.14" font-family="Arial" font-size="10.00">Wechselwirkungen &amp; Zielbeziehungen:</text>
<text text-anchor="middle" x="1279" y="-121.14" font-family="Arial" font-size="10.00">• Komplementär &#160;| &#160;Neutral &#160;| &#160;Konfliktär</text>
<text text-anchor="middle" x="1279" y="-109.14" font-family="Arial" font-size="10.00">(z. B. Beschäftigung vs. Preisstabilität)</text>
</g>
<!-- prozess&#45;&gt;beziehungen -->
<g id="edge16" class="edge">
<title>prozess&#45;&gt;beziehungen</title>
<path fill="none" stroke="#dc2626" stroke-width="1.5" stroke-dasharray="5,2" d="M995.23,-208.33C1012,-203.08 1030.57,-198 1048,-194.78 1101,-184.99 1117.3,-202.02 1169,-186.78 1190.74,-180.37 1212.92,-169.12 1231.61,-158"/>
<polygon fill="#dc2626" stroke="#dc2626" stroke-width="1.5" points="1233.27,-161.09 1239.97,-152.88 1229.61,-155.12 1233.27,-161.09"/>
</g>
<!-- v1 -->
<g id="node10" class="node">
<title>v1</title>
<path fill="#ffffff" stroke="#16a34a" d="M598.02,-52C598.02,-52 479.98,-52 479.98,-52 473.98,-52 467.98,-46 467.98,-40 467.98,-40 467.98,-28 467.98,-28 467.98,-22 473.98,-16 479.98,-16 479.98,-16 598.02,-16 598.02,-16 604.02,-16 610.02,-22 610.02,-28 610.02,-28 610.02,-40 610.02,-40 610.02,-46 604.02,-52 598.02,-52"/>
<text text-anchor="middle" x="539" y="-30.7" font-family="Arial" font-size="9.00">Hoher Beschäftigungsstand</text>
</g>
<!-- stabilitaet&#45;&gt;v1 -->
<g id="edge9" class="edge">
<title>stabilitaet&#45;&gt;v1</title>
<path fill="none" stroke="#64748b" stroke-width="1.5" d="M713.72,-103.53C678.35,-89.65 631.33,-71.21 594.99,-56.96"/>
<polygon fill="#64748b" stroke="#64748b" stroke-width="1.5" points="596.29,-53.71 585.7,-53.32 593.73,-60.23 596.29,-53.71"/>
</g>
<!-- v2 -->
<g id="node11" class="node">
<title>v2</title>
<path fill="#ffffff" stroke="#16a34a" d="M734.65,-52C734.65,-52 647.35,-52 647.35,-52 641.35,-52 635.35,-46 635.35,-40 635.35,-40 635.35,-28 635.35,-28 635.35,-22 641.35,-16 647.35,-16 647.35,-16 734.65,-16 734.65,-16 740.65,-16 746.65,-22 746.65,-28 746.65,-28 746.65,-40 746.65,-40 746.65,-46 740.65,-52 734.65,-52"/>
<text text-anchor="middle" x="691" y="-30.7" font-family="Arial" font-size="9.00">Preisniveaustabilität</text>
</g>
<!-- stabilitaet&#45;&gt;v2 -->
<g id="edge10" class="edge">
<title>stabilitaet&#45;&gt;v2</title>
<path fill="none" stroke="#64748b" stroke-width="1.5" d="M748.21,-103.53C737.85,-91.11 724.43,-75.05 713.2,-61.59"/>
<polygon fill="#64748b" stroke="#64748b" stroke-width="1.5" points="716.03,-59.52 706.93,-54.09 710.65,-64 716.03,-59.52"/>
</g>
<!-- v3 -->
<g id="node12" class="node">
<title>v3</title>
<path fill="#ffffff" stroke="#16a34a" d="M940.15,-52C940.15,-52 783.85,-52 783.85,-52 777.85,-52 771.85,-46 771.85,-40 771.85,-40 771.85,-28 771.85,-28 771.85,-22 777.85,-16 783.85,-16 783.85,-16 940.15,-16 940.15,-16 946.15,-16 952.15,-22 952.15,-28 952.15,-28 952.15,-40 952.15,-40 952.15,-46 946.15,-52 940.15,-52"/>
<text text-anchor="middle" x="862" y="-30.7" font-family="Arial" font-size="9.00">Stetiges &amp; angemessenes Wachstum</text>
</g>
<!-- stabilitaet&#45;&gt;v3 -->
<g id="edge11" class="edge">
<title>stabilitaet&#45;&gt;v3</title>
<path fill="none" stroke="#64748b" stroke-width="1.5" d="M787.01,-103.53C800.99,-90.75 819.2,-74.11 834.18,-60.42"/>
<polygon fill="#64748b" stroke="#64748b" stroke-width="1.5" points="836.33,-63.2 841.35,-53.87 831.6,-58.04 836.33,-63.2"/>
</g>
<!-- v4 -->
<g id="node13" class="node">
<title>v4</title>
<path fill="#ffffff" stroke="#16a34a" d="M1143.03,-52C1143.03,-52 988.98,-52 988.98,-52 982.98,-52 976.98,-46 976.98,-40 976.98,-40 976.98,-28 976.98,-28 976.98,-22 982.98,-16 988.98,-16 988.98,-16 1143.03,-16 1143.03,-16 1149.03,-16 1155.03,-22 1155.03,-28 1155.03,-28 1155.03,-40 1155.03,-40 1155.03,-46 1149.03,-52 1143.03,-52"/>
<text text-anchor="middle" x="1066" y="-30.7" font-family="Arial" font-size="9.00">Außenwirtschaftliches Gleichgewicht</text>
</g>
<!-- stabilitaet&#45;&gt;v4 -->
<g id="edge12" class="edge">
<title>stabilitaet&#45;&gt;v4</title>
<path fill="none" stroke="#64748b" stroke-width="1.5" d="M814.53,-103.59C831.91,-96.91 851.68,-89.73 870,-84 904.14,-73.33 942.18,-63.38 975.6,-55.28"/>
<polygon fill="#64748b" stroke="#64748b" stroke-width="1.5" points="976.1,-58.76 985.01,-53.02 974.46,-51.95 976.1,-58.76"/>
</g>
</g>
</svg>
